<svg xmlns="http://www.w3.org/2000/svg" viewBox="0 0 170.05 170.05"><defs><style>.cls-1{fill:#c7dfe2;}.cls-2{fill:#39444d;}</style></defs><g id="Capa_2" data-name="Capa 2"><g id="Capa_1-2" data-name="Capa 1"><rect class="cls-1" width="170.05" height="170.05" rx="85.02"/><path class="cls-2" d="M130.36,97.78a26.13,26.13,0,0,1-1.19,4,12.79,12.79,0,0,1-12.3,7.84q-26.19.09-52.39,0A13.11,13.11,0,0,1,51.32,99,13.88,13.88,0,0,1,51,96.21c0-3.54,0-7.08,0-10.62,0-1.77.69-2.45,2.46-2.47,2.27,0,4.54,0,6.93,0,0-.31,0-.59,0-.87,0-2.69,0-5.37,0-8,0-3.85-2.33-6.16-6.18-6.18-2.68,0-5.38.12-8-.13a7.08,7.08,0,0,1-6.37-5.75c0-.22-.12-.45-.18-.67V57.22c.06-.2.13-.39.17-.59A9.19,9.19,0,0,1,48,49.21a47.25,47.25,0,0,1,4.76-.08,2.39,2.39,0,0,0,2.12-1.21c.69-1.21,1.44-2.39,2.16-3.59a8.09,8.09,0,0,1,3.08-3.22l.33-.17a13.12,13.12,0,0,1,5.68-1.26c2.81,0,8.64.12,8.76.14a9.49,9.49,0,0,1,8,9.39A15.74,15.74,0,0,0,84.57,56a14.14,14.14,0,0,0,7.69,6.55A39.41,39.41,0,0,1,113.43,82.4a1.11,1.11,0,0,0,1.2.73c4.42,0,8.85,0,13.27,0a2.25,2.25,0,0,1,2.46,1.55ZM54.84,87c0,.3-.05.56-.05.82,0,2.74,0,5.49,0,8.23A10.89,10.89,0,0,0,55,98.3a9.34,9.34,0,0,0,9.55,7.48q14.78,0,29.57,0h22.66c4.81,0,8.77-2.85,9.45-7.41.55-3.73.33-7.57.45-11.41Zm9.43-3.91h45.26c-.21-.4-.35-.71-.52-1A36.18,36.18,0,0,0,90,65.71a16.52,16.52,0,0,1-9.45-9.29,19,19,0,0,1-1.43-7.15A5.49,5.49,0,0,0,74,43.58c-3.2-.22-6.43-.13-9.64,0A4.76,4.76,0,0,0,60.45,46c-.83,1.32-1.62,2.67-2.43,4a5.75,5.75,0,0,1-5.22,2.9c-1.42,0-2.84,0-4.25,0a5.26,5.26,0,0,0-4.93,4.22,15.69,15.69,0,0,0-.16,2.91c0,2.7,1.47,4.16,4.16,4.17,2.51,0,5-.05,7.52,0a9.15,9.15,0,0,1,8.16,5.34,9.46,9.46,0,0,1,1,4.54Z"/><path class="cls-2" d="M39.68,123.81a5.6,5.6,0,0,1,3.7-4.18,13.57,13.57,0,0,1,3.64-.58c3.13-.07,6.26,0,9.39,0,1.52,0,2.41-1,2.06-2.38a1.86,1.86,0,0,0-2-1.37H49.55A5.73,5.73,0,0,1,44,112a8.6,8.6,0,0,1-.55-4.23h3.79c0,.53,0,1,0,1.57a1.9,1.9,0,0,0,2.14,2.12c2.31,0,4.61,0,6.91,0a5.71,5.71,0,0,1,6,4.92,5.57,5.57,0,0,1-5.15,6.36c-3.3.11-6.61,0-9.91.08a11.26,11.26,0,0,0-2.45.31,1.54,1.54,0,0,0-1.28,1.59,1.8,1.8,0,0,0,1.45,1.76,5.51,5.51,0,0,0,1.14.11h55.07a6.33,6.33,0,0,0,1-.07,2,2,0,0,0,1.79-2,1.89,1.89,0,0,0-2-1.77c-1.65,0-3.31,0-5,0a4.61,4.61,0,0,1-4.15-3.19,4.7,4.7,0,0,1,4.42-6.19c2.24-.06,4.48,0,6.72,0h20c2,0,2.61-.64,2.62-2.58v-3.09h3.76v4.61c-1.45,3.9-2.79,4.83-7,4.83H98.18a7.12,7.12,0,0,0-.8,0c-.59.06-1,.35-1,1a.91.91,0,0,0,1,.88c.27,0,.54,0,.8,0a45.55,45.55,0,0,1,4.68.14,5.23,5.23,0,0,1,4.54,3.93,5,5,0,0,1-1.5,5.56,16.16,16.16,0,0,1-3,1.71H44.47c-.52-.19-1-.34-1.55-.57a6.1,6.1,0,0,1-3.24-4.21Z"/><path class="cls-2" d="M130.36,76a2.3,2.3,0,0,1-2.43,1.48c-4.66,0-9.32,0-14,0-1.82,0-2.5-.67-2.5-2.51q0-12.69,0-25.39c0-2.09.61-3,2.65-3.43.93-.22,1.28-.57,1.17-1.52s0-1.65,0-2.48a2.25,2.25,0,0,1,1.48-2.44h8.32a2.26,2.26,0,0,1,1.56,2.47c0,.94,0,1.88,0,2.82,0,.65.17.94.82,1.06a4,4,0,0,1,3,2Zm-3.76-2.34V62.75c0-4,0-8.08,0-12.12,0-.66-.11-1-.87-1.08a32,32,0,0,0-9.67,0c-.65.09-.82.3-.82.93,0,5,0,9.91,0,14.87,0,.22,0,.45.06.79h5.53V70h-5.54v3.7Zm-3.89-28.33V43.53H119.1v1.79Z"/><path class="cls-2" d="M105.78,54.76a5.66,5.66,0,0,1-11.31.07,5.73,5.73,0,0,1,5.68-5.7A5.67,5.67,0,0,1,105.78,54.76ZM100.12,53a1.83,1.83,0,0,0-1.83,1.87,1.9,1.9,0,0,0,1.87,1.86,1.94,1.94,0,0,0,1.85-1.9A1.89,1.89,0,0,0,100.12,53Z"/><path class="cls-2" d="M75.6,54.84h3.67c0,2.19.17,4.36,0,6.48a5.46,5.46,0,0,1-5.57,4.79,5.63,5.63,0,0,1-5.53-4.76,11.6,11.6,0,0,1-.1-1.77c0-2.82,0-5.64,0-8.51h3.77v1c0,2.69,0,5.37,0,8a2,2,0,0,0,1.17,2,1.52,1.52,0,0,0,1.88-.3,3.36,3.36,0,0,0,.72-1.79c.11-1.44,0-2.89,0-4.33Z"/><path class="cls-2" d="M61,57c2.79,0,2.79-4.33,0-4.33S58.17,57,61,57Z"/></g></g></svg>