<svg xmlns="http://www.w3.org/2000/svg" viewBox="0 0 170.05 170.05"><defs><style>.cls-1{isolation:isolate;}.cls-2{fill:#e0adb1;mix-blend-mode:multiply;}.cls-3{fill:#39444d;}</style></defs><g class="cls-1"><g id="Capa_2" data-name="Capa 2"><g id="Capa_1-2" data-name="Capa 1"><rect class="cls-2" width="170.05" height="170.05" rx="85.02"/><path class="cls-3" d="M33.21,71a6.27,6.27,0,0,1,3.11-4.35,7.77,7.77,0,0,1,2.1-.71,8.44,8.44,0,0,0,6.14-4.16,15.26,15.26,0,0,1,7.22-6.55.89.89,0,0,0,.61-1c0-1.16,0-2.31,0-3.47a2,2,0,0,1,2.92-1.93,11.2,11.2,0,0,1,5.47,3.92,5.75,5.75,0,0,1,1.06,2.45,10.92,10.92,0,0,0,1.35,4.14,49,49,0,0,0,9.45,12.13c2.18,2,4.88,2.66,7.69,3.08a116.86,116.86,0,0,0,16,.88c4.84,0,9.68,0,14.52,0a1.2,1.2,0,0,0,1.31-.76c.72-1.66,1.5-3.29,2.2-5,1.61-3.79,3.45-7.47,6.69-10.13a33.89,33.89,0,0,1,5.09-3.07,1.91,1.91,0,0,1,2.49.31,2,2,0,0,1,.23,2.43,37,37,0,0,0-3.1,10.26c-.35,2.64-1,5.32.23,7.93a12.29,12.29,0,0,0,.9,1.63c2.83,4.16,2.85,8.62,1.25,13.16a15,15,0,0,1-2.3,4.25,10,10,0,0,0-2,9.21c.86,3.35,1.77,6.69,2.59,10.05a24.85,24.85,0,0,1-1.12,15.69,2.18,2.18,0,0,1-2.2,1.53c-2.93,0-5.87,0-8.8,0a4.23,4.23,0,0,1-2-8,20,20,0,0,0,2-1.24,2.86,2.86,0,0,0,1.13-3.77,11.33,11.33,0,0,0-5.34-5.8,31.94,31.94,0,0,1-10.33-8.93.83.83,0,0,0-1.09-.37A76.59,76.59,0,0,1,78.07,108c-.75,0-1,.26-1.09,1a77.89,77.89,0,0,1-3.1,14.33c-1,3.12-2.19,6.18-4.41,8.7a2.67,2.67,0,0,1-2.12,1c-2.9,0-5.81,0-8.71,0A4.15,4.15,0,0,1,56.75,125a8.86,8.86,0,0,0,4.66-11,23.42,23.42,0,0,1-1.36-6.29,1.79,1.79,0,0,0-.67-1.1c-3.45-2.75-6.33-6-7.84-10.16-.48-1.37-.47-2.93-1-4.25S48.76,90,48.24,88.68a37.38,37.38,0,0,1-1.48-5.47c-.11-.46-.22-.72-.7-.81-2.17-.42-4.31-1-6.5-1.27a6.55,6.55,0,0,1-5.78-5.08c-.24-.87-.38-1.76-.57-2.63ZM58.1,128.74l.08.28c.32,0,.64.09,1,.09,2.28,0,4.56,0,6.84,0a1.53,1.53,0,0,0,1.51-.83,31.1,31.1,0,0,0,3.21-7.75,91.67,91.67,0,0,0,2.71-14c.26-2,.82-2.44,2.82-2.42a65.76,65.76,0,0,0,14.42-1.36c3-.64,5.92-1.51,8.87-2.3a1.93,1.93,0,0,1,2.71,1.47,3.84,3.84,0,0,0,.5.88,27.35,27.35,0,0,0,9.06,7.84,16.32,16.32,0,0,1,6.8,6.89c1.73,3.44,1.1,6.63-1.87,9-.67.55-1.45,1-2.16,1.47a5.51,5.51,0,0,0-.73.72,3.72,3.72,0,0,0,1,.27c2.16,0,4.31,0,6.47,0,.61,0,.85-.2,1-.78a21.88,21.88,0,0,0,.2-12.37c-.81-3.17-1.74-6.31-2.46-9.49-.6-2.64-.9-5.36.26-7.92.81-1.77,2-3.38,2.93-5.08,2.28-4,3-8.13.37-12.37a14.91,14.91,0,0,1-1.78-4c-.85-3.25-.28-6.52.29-9.75.26-1.5.7-3,1.11-4.64a27.5,27.5,0,0,0-5.53,8.73,61.38,61.38,0,0,1-2.54,5.61,4,4,0,0,1-3.85,2.17c-6.21-.05-12.43.08-18.64-.08-4.39-.11-8.78-.51-13.16-.92A15.86,15.86,0,0,1,69.79,74a53.52,53.52,0,0,1-8.24-9.91C59.93,61.54,58.42,59,58,55.88a2.72,2.72,0,0,0-1.78-2.17,5.87,5.87,0,0,0,0,.86c.32,2.12-.54,3.31-2.6,4.07a11,11,0,0,0-5.9,5.2,11.2,11.2,0,0,1-7.9,5.64c-2.42.5-2.83,1-2.72,3.47,0,.18,0,.37,0,.56.36,2.57,1.07,3.63,3.8,3.92A56,56,0,0,1,49,79.32a1.91,1.91,0,0,1,1.45,2,20,20,0,0,0,.15,2c.28,2.14.77,4.22,2.57,5.64a2.79,2.79,0,0,1,1.16,2.32A12.42,12.42,0,0,0,56,97.08a20.41,20.41,0,0,0,6.63,7.13,2.39,2.39,0,0,1,1.27,2.23A15.8,15.8,0,0,0,65,112.66a12,12,0,0,1,.78,3.82,12.91,12.91,0,0,1-6.41,11.45C59,128.21,58.52,128.47,58.1,128.74Z"/><path class="cls-3" d="M85.87,37.06a15.61,15.61,0,0,1,1.72,1.51c2.69,3.12,5.34,6.28,8,9.4a3.09,3.09,0,0,0,1.11.74,6.05,6.05,0,0,1,1.94-5.47,5.4,5.4,0,0,1,4-1.38,5.53,5.53,0,0,1,5.36,6,5.37,5.37,0,0,1-2.75,4.42c-1.66,1-3.47.79-5.48.58.56.67,1,1.2,1.44,1.74a5.62,5.62,0,1,1-9.45,5.78,5.49,5.49,0,0,1,2.48-6.91l.89-.5a6.82,6.82,0,0,0-1.67-.7c-4.59-.48-9.19-.89-13.78-1.39a3.49,3.49,0,0,1-1.81-.79,1.62,1.62,0,0,1-.24-2,1.9,1.9,0,0,1,2-1c1.53.12,3.05.29,4.57.44l6.4.63c-.27-.35-.45-.59-.64-.82L84.38,40.7c-1.31-1.54-1.07-2.71.74-3.64Zm16.5,12.14a1.75,1.75,0,1,0,0-3.5,1.75,1.75,0,0,0,0,3.5Zm-3.61,9.09A1.79,1.79,0,0,0,97,56.55a1.74,1.74,0,0,0-1.74,1.8A1.77,1.77,0,0,0,97,60.05,1.81,1.81,0,0,0,98.76,58.29Z"/><path class="cls-3" d="M82.51,65.18C81.23,66.51,80,67.79,78.81,69a1.82,1.82,0,0,1-2.32.34,1.75,1.75,0,0,1-.9-2.07,3,3,0,0,1,.79-1.23c1.15-1.18,2.34-2.32,3.59-3.55l-1.31-1.14L75.9,64.15c-.35.36-.69.73-1.07,1a1.9,1.9,0,0,1-2.67-2.7c1-1.12,2.15-2.17,3.23-3.26.18-.17.34-.36.51-.54a1.56,1.56,0,0,0-2.38.08c-.85.79-1.63,1.64-2.47,2.43a1.83,1.83,0,0,1-2.08.42A1.68,1.68,0,0,1,67.83,60a2.46,2.46,0,0,1,.54-1.43,30.93,30.93,0,0,1,3-2.95,5.27,5.27,0,0,1,7,0c2.52,2.32,5,4.75,7.28,7.27a5.28,5.28,0,0,1,.07,7A39.67,39.67,0,0,1,82.61,73,1.86,1.86,0,0,1,80,73a1.89,1.89,0,0,1,0-2.69c.78-.85,1.64-1.64,2.44-2.47S83.25,66.31,82.51,65.18Z"/><path class="cls-3" d="M50.34,69.41c2.87,0,2.88-4.46,0-4.46s-2.87,4.46,0,4.46Z"/></g></g></g></svg>