<svg xmlns="http://www.w3.org/2000/svg" viewBox="0 0 170.05 170.05"><defs><style>.cls-1{fill:#efdfd0;}.cls-2{fill:#39444d;}</style></defs><g id="Capa_2" data-name="Capa 2"><g id="Capa_1-2" data-name="Capa 1"><rect class="cls-1" width="170.05" height="170.05" rx="85.02"/><path class="cls-2" d="M89.66,56.21l-3,3L84.92,61l-.33-.34c-.57-.6-1.12-1.2-1.66-1.79-1.17-1.26-2.26-2.46-3.48-3.55C74.64,51,69.32,48.8,63.65,48.8a25.6,25.6,0,0,0-8.08,1.38A23.53,23.53,0,0,0,40,67.1a23.92,23.92,0,0,0,6.32,22.52C55.09,98.49,64,107.41,72.64,116q5.24,5.2,10.45,10.43A2.94,2.94,0,0,0,85,127.57h0a3,3,0,0,0,2-1.12q18.39-18.4,36.76-36.82a23,23,0,0,0,5.95-10.09c.3-1.08.51-2.2.71-3.28.09-.5.19-1,.29-1.49V70.68l-.1-.49c-.08-.43-.16-.86-.23-1.29a23.84,23.84,0,0,0-34.5-17.34A25.16,25.16,0,0,0,89.66,56.21Zm20,40.92-24.79,24.8-.44-.43c-.12-.1-.28-.26-.44-.42l-1.72-1.72c-1.93-1.93-3.91-3.91-5.84-5.9a2.64,2.64,0,0,1-.69-1.72,82.42,82.42,0,0,0-1.28-16.15c-.65-3.22-1.74-7.36-4.38-10.82a10.71,10.71,0,0,0-6.52-4.23,15.52,15.52,0,0,1-8.11-4.76,6.78,6.78,0,0,1-1.07-1.49,1.57,1.57,0,0,1-.12-1.61,1.62,1.62,0,0,1,1.5-.66h.93c1.66,0,3.36,0,5,0a5,5,0,0,0,3.13-.81,9.07,9.07,0,0,1,1.16-.6l.06,0,.48-.23.59-.29.08.65A16.88,16.88,0,0,0,69.16,77a2.31,2.31,0,0,0,3.15,1.18,2.06,2.06,0,0,0,1-1.24,2.72,2.72,0,0,0-.3-2.1,11.2,11.2,0,0,1-1.33-5v-.52l.52,0A6.46,6.46,0,0,1,76,70.92a12.64,12.64,0,0,1,3.44,5c2.76,6.48,6.33,11.36,10.92,14.9A21.42,21.42,0,0,0,102,95.32c1.68.14,3.38.38,5,.62h.1l2,.3a1.07,1.07,0,0,1,.34.1l.61.27ZM88.07,81.05a36,36,0,0,1,7.4-9.44,1.43,1.43,0,0,1,1.11-.34,15.22,15.22,0,0,1,9.67,5,4,4,0,0,0,2.19,1.42c.77.17,1.55.37,2.29.56l1.49.38-.14.47a5.72,5.72,0,0,1-4.52,3.61h-.09a4.42,4.42,0,0,1-1.31,0,4.92,4.92,0,0,0-3.71,1,18,18,0,0,0-5.4,5.48l-.22.35-.37-.18a22.57,22.57,0,0,1-8.35-7.12A1.24,1.24,0,0,1,88.07,81.05Zm25-26.65c7.19,2.45,11.66,7.76,12.91,15.37a18.75,18.75,0,0,1-5.44,16.75c-1.77,1.84-3.59,3.62-5.3,5.3a1.75,1.75,0,0,1-1.28.54c-3.08-.39-6.13-.8-9.07-1.21l-2-.27a1.91,1.91,0,0,1-.33-.06l-.37-.07-.38-.8,1-.8c.69-.57,1.39-1.13,2.09-1.66a1.73,1.73,0,0,1,1.07-.26c4.32.25,7.58-1.58,10-5.59a13.68,13.68,0,0,0,1.33-2.92,3.42,3.42,0,0,0-.42-3,3.54,3.54,0,0,0-2.67-1.56c-.65-.06-1.21-.12-1.72-.19a6.18,6.18,0,0,1-4-1.87,18.53,18.53,0,0,0-7-4.29l-.88-.34,1.49-.92,1.3-.8a2.76,2.76,0,0,0,1.33-1.64,2.11,2.11,0,0,0-.28-1.61,2.31,2.31,0,0,0-3.32-.61A44.63,44.63,0,0,0,85.8,76.12l-.25.33-.65.84-.32-.71-.31-.68,0-.1c-.24-.5-.48-1-.68-1.53A15.73,15.73,0,0,0,78.22,67c-3.5-2.53-7.51-2.93-12.25-1.23l-.24.08a8.19,8.19,0,0,0-1.56.69,7.4,7.4,0,0,1-4.38,1l-.7,0a25.13,25.13,0,0,0-4.69.17,5.62,5.62,0,0,0-4.06,2.8,5.8,5.8,0,0,0-.24,5,11.37,11.37,0,0,0,2,3.18,19.23,19.23,0,0,0,10.1,6.06,7.76,7.76,0,0,1,5,3.66A20.27,20.27,0,0,1,70,96.13c.4,2.5.72,5.12,1,7.43l0,.39c.12.94.23,1.87.35,2.8l0,.38-.94.31-.38-.31a4.64,4.64,0,0,1-.42-.37l-5.25-5.24-.58-.58c-4.69-4.68-9.54-9.51-14.29-14.37-5.37-5.48-7.07-12.19-4.91-19.4A18.55,18.55,0,0,1,59.4,53.74a18.35,18.35,0,0,1,17,4.88c1.56,1.45,3.07,3,4.53,4.47l0,0c.72.73,1.43,1.46,2.15,2.18,1.28,1.27,2.47,1.27,3.74,0L89,63.17c1.41-1.43,2.86-2.9,4.34-4.3C99.17,53.43,105.79,51.93,113.06,54.4Z"/><path class="cls-2" d="M99.42,78.78a1.67,1.67,0,0,0,0-3.34,1.67,1.67,0,0,0,0,3.34Z"/><path class="cls-2" d="M65,76.43a1.67,1.67,0,0,0,0-3.33,1.67,1.67,0,0,0,0,3.33Z"/></g></g></svg>