<svg xmlns="http://www.w3.org/2000/svg" viewBox="0 0 207.96 193.79"><defs><style>.cls-1{fill:#31424c;}</style></defs><g id="Capa_2" data-name="Capa 2"><g id="Capa_1-2" data-name="Capa 1"><path class="cls-1" d="M203.17,129.74c-5.58-7.21-13.15-10.11-22-10.13a5.41,5.41,0,0,1-1-.09,203.88,203.88,0,0,0-27.52-39.75c-.94-1.1-1.88-2.2-2.85-3.28a56.33,56.33,0,0,0-3.91-4.12,5.3,5.3,0,0,0-.6-.46,192.18,192.18,0,0,0-26.5-22.32l-.16-.18a12.31,12.31,0,0,0-1.8-1.3q-2.34-1.5-4.69-2.94c-1.11-.7-2.21-1.38-3.28-2A161.78,161.78,0,0,0,72.51,26.6c-1.23-.41-2.47-.8-3.71-1.17a2.24,2.24,0,0,1-1.92-2.13A26.89,26.89,0,0,0,56.47,4.9C43.39-5.13,24.81,1,21,16.57A64.81,64.81,0,0,0,20,23.83a.62.62,0,0,1-.25.16c-.39.09-.79.14-1.19.22-6,1.07-11.16,3.71-14.44,8.88C2.26,36,1.34,39.6,0,42.89v5.68c.34,1.3.61,2.63,1,3.9C4.53,62.69,12,68,22.37,69.69a9.51,9.51,0,0,0,3,.29c3.13-.57,4.4,1.14,5.69,3.67,2.78,5.48,5.94,10.77,9,16.14l1.09,1.91A53.71,53.71,0,0,0,58.69,193.5c24.51,2.62,50.12-12.82,57.17-38.27,4.17,1.71,8.31,3.48,12.5,5.1,3.34,1.29,6.72,2.48,10.14,3.53a3.09,3.09,0,0,1,2.51,2.82c1.93,10,7,17.75,16.9,21.37,14.9,5.46,29.61-4.88,29.79-20.74,0-.53.05-1.07.06-1.28,3-1.07,6-1.79,8.71-3.14,6-3,9.61-8.13,11.06-14.72.1-.44.29-.87.43-1.3v-6.1C207,136.84,205.71,133,203.17,129.74ZM60.76,95c-14,15.65-27.8,31-41.65,46.42C17.27,120.87,34.32,96.87,60.76,95Zm-1.55,88.47a3.52,3.52,0,0,1-4,1.29C38.27,180.69,26.9,170.48,21,154.12a2.94,2.94,0,0,1,.63-3.42Q46,123.63,70.33,96.46a2.39,2.39,0,0,1,2.59-.92,45.77,45.77,0,0,1,35,31.94l-.39.41C99.27,137.06,67.37,174.23,59.21,183.46Zm13.84,1.25c-1.39.27-2.79.48-4.19.72l-.19-.41,12.17-13.57c2.45-2.74,20.45-23.87,28.79-33.59,0,.57,0,1.16.05,1.74A45.3,45.3,0,0,1,73.05,184.71Zm38.51-70.48a7.9,7.9,0,0,1-1.51-1.88A54.07,54.07,0,0,0,84.21,90.42a9.91,9.91,0,0,1-2.59-1.52c-5-4.16-9.93-8.37-14.88-12.56-4.64-3.94-5-9.18-1.08-13.91s9.28-5.3,13.89-1.4q30.93,26.1,61.8,52.28c3.44,2.91,4.47,6.74,3,10.53-1.62,4.22-5.64,7.2-9.67,7.18l-.24.5c-1.9-.91-4.06-1.51-5.66-2.79C122.94,124,117.27,119.1,111.56,114.23Zm77.33,42.85a27.22,27.22,0,0,1-5,.48c-3.82.15-5.24,1.8-4.68,5.6,0,.33.16.66.2,1,.71,5.64-.26,10.77-5.09,14.35a13.76,13.76,0,0,1-15.14,1.27c-6.84-3.4-9.76-9.49-10.45-16.76-.4-4.23-.81-4.59-4.87-6-8.38-3-16.66-6.31-25-9.46-1.14-.43-1.35-1.07-1.3-2.29.14-3.44.08-6.89,0-10.33,0-1.65-.36-3.3-.62-5.46,2.48,2.08,4.56,3.87,6.69,5.6,7.73,6.29,18.28,5.2,24.8-2.53,6.77-8,6.23-18.57-1.52-25.16Q115.76,80.91,84.53,54.63C73.11,45,57.91,52.68,55.3,65.8c-1.31,6.57.88,12.14,6,16.54,1.18,1,2.38,2,3.56,3a9.68,9.68,0,0,1,.79.84L48.7,88.42c-.15-.24-.52-.8-.84-1.38-4-7.21-8.12-14.36-12-21.66-1.43-2.75-3.22-4-6.27-3.55a17.14,17.14,0,0,1-3,0c-5.35-.24-10.3-1.48-14.16-5.54C4.53,48,7.87,35.14,18.69,32.51a37,37,0,0,1,6.24-.59c2.68-.19,4.08-1.68,3.95-4.35a20.93,20.93,0,0,0-.3-2.21C27.37,17.93,30.69,11.55,37,9.12a15.56,15.56,0,0,1,17,4.47c3.61,4,4.81,8.82,5.29,14,.27,2.83,1.09,3.94,3.7,4.65,17.84,4.87,34.22,12.93,49.73,22.87a9.85,9.85,0,0,0,1.65.91,183,183,0,0,1,25.5,21.5c.08.12.15.23.24.35a12.45,12.45,0,0,0,1.07,1.22,182.34,182.34,0,0,1,31.27,45.72,4.75,4.75,0,0,0,4.82,3c2.1,0,4.2-.08,6.29.08,6.63.52,11.75,3.54,14.74,9.59C202.46,145.83,198.06,155,188.89,157.08Z"/></g></g></svg>