<svg xmlns="http://www.w3.org/2000/svg" viewBox="0 0 201.99 183.06"><defs><style>.cls-1{fill:#31424c;}</style></defs><g id="Capa_2" data-name="Capa 2"><g id="Capa_1-2" data-name="Capa 1"><path class="cls-1" d="M143.15,183.06a29.43,29.43,0,0,1-4.17-.29,107,107,0,0,1-15-3.4c-3.51-1-6.43-1.89-8.91-2.64-6.45-2-9.71-2.94-12.46-2.94h-.06c-2.79,0-6.18,1-12.92,3.08-2.29.69-4.94,1.49-8.05,2.4a111.41,111.41,0,0,1-13.68,3.22c-11,1.77-21.39-1.91-27.83-9.85s-7.94-19.06-3.89-29.59a77.59,77.59,0,0,1,5.35-10.58l1.34-2.35c1.74-3.11,3.57-6.22,5.33-9.22,3.22-5.46,6.55-11.12,9.35-16.8C66.67,85.61,81.86,76.51,102.75,77l2,0c19.53,0,34,9.12,43,27.13,2.91,5.84,6.34,11.65,9.65,17.26,2.6,4.41,5.3,9,7.78,13.6a52,52,0,0,1,5.78,15.63,27.32,27.32,0,0,1-7.44,23.87A28.11,28.11,0,0,1,143.15,183.06Zm-40.54-19.88c4.06,0,8.1,1.13,15.53,3.38,2.45.74,5.32,1.61,8.78,2.61a98.29,98.29,0,0,0,13.55,3.08,17.7,17.7,0,0,0,15.37-5.17,16.81,16.81,0,0,0,4.57-14.68A41.29,41.29,0,0,0,155.75,140c-2.38-4.44-5-8.9-7.57-13.22-3.4-5.77-6.93-11.74-10-17.92-7.39-14.82-18.95-21.76-35.23-21.22h-.32c-16.9-.46-28.2,6.25-35.56,21.15-3,6-6.4,11.86-9.71,17.49-1.74,3-3.54,6-5.23,9-.45.82-.92,1.63-1.39,2.44a68.35,68.35,0,0,0-4.65,9.12c-2.71,7-1.9,14,2.23,19.08S58.9,173.18,66.2,172a101.44,101.44,0,0,0,12.39-2.92c3.07-.9,5.69-1.69,8-2.38C94.32,164.35,98.48,163.18,102.61,163.18Z"/><path class="cls-1" d="M76.84,71.24a21.23,21.23,0,0,1-11.23-3.37C54.73,61.08,48.41,50.34,46.3,35.05c-1.41-10.19.21-18.65,5-25.86A20.91,20.91,0,0,1,79.39,3C88.31,8.42,94.17,17.23,97.3,29.94a45.38,45.38,0,0,1,1,5.81h0a42.27,42.27,0,0,1-3.63,23c-.43.9-.88,1.76-1.35,2.56a19.57,19.57,0,0,1-12.12,9.4A18.31,18.31,0,0,1,76.84,71.24ZM68.52,10.6A10,10,0,0,0,60.13,15c-3.31,5-4.36,10.94-3.31,18.58,1.68,12.14,6.26,20.17,14.41,25.26a9.67,9.67,0,0,0,7.43,1.55A9.05,9.05,0,0,0,84.16,56c.31-.54.62-1.13.92-1.76A31.61,31.61,0,0,0,87.75,37,37.47,37.47,0,0,0,87,32.48C84.53,22.5,80.36,16,73.88,12.09A10.32,10.32,0,0,0,68.52,10.6Z"/><path class="cls-1" d="M125.26,72.75a17.29,17.29,0,0,1-5.19-.79c-6.66-2.08-11.59-8-13.88-16.6-4.32-16.19,3.6-39.12,17-49,6.64-4.94,13.81-6.4,20.18-4.13S154.2,10,156.17,18a53.94,53.94,0,0,1,1.12,6.8c.09.78.18,1.53.29,2.23l.08.56,0,.56c-1.1,17.2-6.46,29.32-16.84,38.16C135.76,70.53,130.4,72.75,125.26,72.75Zm12-61a13.56,13.56,0,0,0-7.79,3.06c-9.73,7.24-16.18,26-13,37.8,1.33,5,3.73,8.24,6.78,9.19s6.8-.36,10.66-3.65C142,51.32,146,42,147,28c-.09-.62-.17-1.27-.25-1.94a44,44,0,0,0-.88-5.49c-1.08-4.35-3.26-7.31-6.12-8.33A7.2,7.2,0,0,0,137.27,11.77Z"/><path class="cls-1" d="M168.27,109.5a21,21,0,0,1-9.35-2.25c-5.62-2.79-12.25-9-11.9-22.59.38-14.38,6.53-26.53,17.81-35.12,8.53-6.51,16.93-7.92,25-4.22,5.61,2.58,12.28,9.11,12.2,25.5v.27c-.7,12.32-7.22,24.1-17.88,32.32C178.2,108,172.84,109.5,168.27,109.5Zm12.58-55.58c-2.93,0-6,1.33-9.58,4.07-8.75,6.66-13.34,15.73-13.63,26.95-.22,8.69,3.32,11.47,6,12.79s7.13,2.54,14-2.73c8.18-6.31,13.19-15.18,13.75-24.38,0-8.54-2-13.8-6-15.65A10.56,10.56,0,0,0,180.85,53.92Z"/><path class="cls-1" d="M34.07,109.11c-4.19,0-9.1-1.3-14.53-5a39.72,39.72,0,0,1-8-7C2.17,85.92-1.45,74.55.52,62.31c1.23-7.65,5.16-13.54,11.05-16.56s12.8-2.75,19.62.66c14.08,7.05,22.38,19.64,24,36.42l0,.31v.31c-.16,8.15-1.63,18.18-11.66,23.32A20.71,20.71,0,0,1,34.07,109.11ZM20.33,54.31a8.49,8.49,0,0,0-3.91.9C13.61,56.65,11.69,59.77,11,64,9.54,73.13,12.3,81.46,19.7,90.23a29.43,29.43,0,0,0,5.87,5.09c6.52,4.49,10.62,3.3,13.14,2,3.46-1.77,5.65-4.71,5.88-13.77-1.34-13-7.44-22.28-18.15-27.64A13.75,13.75,0,0,0,20.33,54.31Z"/></g></g></svg>