<svg xmlns="http://www.w3.org/2000/svg" viewBox="0 0 211.53 208.97"><defs><style>.cls-1{fill:none;}.cls-2{fill:#31424c;}</style></defs><g id="Capa_2" data-name="Capa 2"><g id="Capa_1-2" data-name="Capa 1"><path class="cls-1" d="M163.15,148.51c3.49-3.49,5.2-7.51,4.95-11.62s-2.57-8.18-6.7-11.41l-1-.81-3.48,3.52c-2,2.06-4.07,4.13-6.13,6.16a4.45,4.45,0,0,1-5.11,1.08,3.9,3.9,0,0,1-2.85-3.88,7.46,7.46,0,0,1,1.64-4.08c1.8-2.08,3.79-4,5.91-6,.88-.86,1.78-1.72,2.69-2.63l1.07-1.06L151.24,115c-1.32-1.28-2.61-2.53-3.88-3.8s-2.46-2.51-3.75-3.84l-2.84-2.92L131,114.2a4.8,4.8,0,0,1-8.16-1.71,4.74,4.74,0,0,1,1.14-4.57c1.86-2,3.9-4,5.86-5.94l1.38-1.34a5.37,5.37,0,0,1,1-.71l.53-.34,1.46-1L120.43,84.81l-1.05,1.06-2.51,2.55c-1.93,2-3.92,4-6,6a5,5,0,0,1-4.78,1.32,4.8,4.8,0,0,1-1.66-8.22l6.27-6.16,3.19-3.14-13.4-13.43L97,68.35c-2,2-4,4.11-6.11,6.15a4.58,4.58,0,0,1-5.53.9,4.27,4.27,0,0,1-2.45-4.53,7.45,7.45,0,0,1,1.76-3.38c1.88-2,3.89-4,5.84-5.89.77-.74,1.53-1.48,2.26-2.21l1.07-1-13-13L48.05,78.17l1.21,1.3c.26.28.61.67,1,1L71,101.27q29.43,29.43,58.83,58.86c3.33,3.33,6.88,5,10.6,5a13.37,13.37,0,0,0,3.75-.56,17.17,17.17,0,0,0,6.56-3.79c3.07-2.83,6-5.84,8.91-8.75Q161.4,150.27,163.15,148.51Z"/><path class="cls-1" d="M171.62,155.53l-1-.84-12.92,12.9.84,1c2.07,2.56,4.69,5.08,8.63,5.08a9.44,9.44,0,0,0,1.55-.13,9,9,0,0,0,7.63-6.72C177.84,161.43,174.61,158,171.62,155.53Z"/><path class="cls-2" d="M211,201.67a24.84,24.84,0,0,0-1.72-2q-11.82-11.88-23.7-23.69a3.71,3.71,0,0,1-1-4.42c3-8.16,1.51-15.15-4.39-20.79-2.55-2.43-4.06-5-3.15-9.44,1.54-7.5-.75-14.4-6.78-20.5q-11.16-11.3-22.43-22.48L85.2,35.66c-1.62-1.63-3-2.42-4.37-2.42h0c-1.31,0-2.73.79-4.35,2.42L61.14,51.05,27.87,17.79l2.71-2.7c1.91-1.9,3.87-3.84,5.82-5.79S39.25,5.57,39,4.05s-1.41-2.79-3.58-4h-2l-1,.7a16.56,16.56,0,0,0-2.67,2q-7.95,7.85-15.83,15.77L4.93,27.38C3.26,29,2.7,30.56,3.09,32.3a4.68,4.68,0,0,0,3.18,3.52A4.83,4.83,0,0,0,11,34.63c1.67-1.57,3.32-3.24,4.91-4.85.8-.81,1.59-1.62,2.39-2.41.36-.36.74-.71,1.05-1l1.36-1.28,33,33.05-1.12,1.24c-.24.27-.58.66-.95,1L46.8,65.32c-2.9,2.9-5.8,5.79-8.69,8.7-2.54,2.57-2.53,5.17,0,7.72L56.77,100.4c22,22,44.81,44.85,67.28,67.2,6.35,6.31,14,8.37,22.76,6.11a4,4,0,0,1,4.55,1.3,30.9,30.9,0,0,0,2.28,2.31l.38.36c5.88,5.56,12.51,6.9,20.26,4.06a4.15,4.15,0,0,1,4.93,1.14c7.5,7.6,15,15.13,22.37,22.38a34.78,34.78,0,0,0,3.28,2.75l1.23,1h2.22l3.22-2.9V202.3Zm-60.28-40.88a17.17,17.17,0,0,1-6.56,3.79,13.37,13.37,0,0,1-3.75.56c-3.72,0-7.27-1.68-10.6-5Q100.44,130.69,71,101.27L50.24,80.5c-.37-.36-.72-.75-1-1l-1.21-1.3,32.81-32.8,13,13-1.07,1c-.73.73-1.49,1.47-2.26,2.21-2,1.89-4,3.84-5.84,5.89a7.45,7.45,0,0,0-1.76,3.38,4.27,4.27,0,0,0,2.45,4.53,4.58,4.58,0,0,0,5.53-.9C93,72.46,95,70.39,97,68.35l3.52-3.58,13.4,13.43-3.19,3.14-6.27,6.16a4.8,4.8,0,0,0,1.66,8.22,5,5,0,0,0,4.78-1.32c2.06-2,4-4,6-6l2.51-2.55,1.05-1.06,13.79,13.77-1.46,1-.53.34a5.37,5.37,0,0,0-1,.71L129.87,102c-2,1.91-4,3.89-5.86,5.94a4.74,4.74,0,0,0-1.14,4.57A4.8,4.8,0,0,0,131,114.2l9.74-9.8,2.84,2.92c1.29,1.33,2.51,2.59,3.75,3.84s2.56,2.52,3.88,3.8l2.86,2.78L153,118.8c-.91.91-1.81,1.77-2.69,2.63-2.12,2-4.11,4-5.91,6a7.46,7.46,0,0,0-1.64,4.08,3.9,3.9,0,0,0,2.85,3.88,4.45,4.45,0,0,0,5.11-1.08c2.06-2,4.1-4.1,6.13-6.16l3.48-3.52,1,.81c4.13,3.23,6.44,7.17,6.7,11.41s-1.46,8.13-4.95,11.62q-1.76,1.76-3.49,3.53C156.79,155,153.82,158,150.75,160.79Zm25.57,6.07a9,9,0,0,1-7.63,6.72,9.44,9.44,0,0,1-1.55.13c-3.94,0-6.56-2.52-8.63-5.08l-.84-1,12.92-12.9,1,.84C174.61,158,177.84,161.43,176.32,166.86Z"/><path class="cls-1" d="M41.23,175.77H41a15.24,15.24,0,0,0-15.25,14.32,8.62,8.62,0,0,0,8.62,9.42c1.53,0,3.06,0,4.59,0h6.17c.84,0,1.69,0,2.53,0a8.54,8.54,0,0,0,8.5-9.07A15.2,15.2,0,0,0,41.23,175.77Z"/><path class="cls-2" d="M37.31,166.52a24.94,24.94,0,0,0-21,22.7,18.13,18.13,0,0,0,14.53,19.4,6.25,6.25,0,0,1,1,.32l18.27,0c4.7-1.18,7.91-2.88,10.41-5.51,5.41-5.7,6.61-14.16,3.13-22.09C59.12,171,48,164.73,37.31,166.52Zm16.53,30.3a8.71,8.71,0,0,1-6.2,2.69c-.84,0-1.69,0-2.53,0H38.94c-1.53,0-3.06,0-4.59,0a8.62,8.62,0,0,1-8.62-9.42A15.24,15.24,0,0,1,41,175.77h.25a15.2,15.2,0,0,1,14.91,14.67A8.77,8.77,0,0,1,53.84,196.82Z"/><path class="cls-2" d="M7.68,160H7.62a7.68,7.68,0,0,0-5.44,2.29,7.62,7.62,0,0,0,.16,10.83,7.6,7.6,0,0,0,5.33,2.22h.09a7.82,7.82,0,0,0,7.62-7.77A7.69,7.69,0,0,0,7.68,160Z"/><path class="cls-2" d="M74.2,160h0a7.58,7.58,0,0,0-7.64,7.64,7.69,7.69,0,0,0,7.65,7.7,7.81,7.81,0,0,0,7.7-7.7,7.54,7.54,0,0,0-2.27-5.4A7.71,7.71,0,0,0,74.2,160Z"/><path class="cls-2" d="M54.3,158.7a7.67,7.67,0,0,0,0-15.34h-.07a7.67,7.67,0,0,0,.06,15.34Z"/><path class="cls-2" d="M27.8,158.69a7.66,7.66,0,0,0,5.12-13.2,7.58,7.58,0,0,0-5.46-2.12A7.8,7.8,0,0,0,22,145.81a7.52,7.52,0,0,0-2.11,5.41,7.73,7.73,0,0,0,7.71,7.48Z"/></g></g></svg>