<svg xmlns="http://www.w3.org/2000/svg" viewBox="0 0 2603.09 962.21"><defs><style>.cls-1{fill:#bedddf;}.cls-2{fill:#34424f;}.cls-3{fill:#e1e6d3;}.cls-4{fill:#2e3031;}.cls-5{fill:none;}</style></defs><g id="Capa_2" data-name="Capa 2"><g id="Capa_1-2" data-name="Capa 1"><circle class="cls-1" cx="534.49" cy="476.86" r="396.47"/><path class="cls-2" d="M834.72,466.34a61.87,61.87,0,0,1,1.61,26.75,64,64,0,0,1-9.83,25.38,68.74,68.74,0,0,1-19,19.41,70.88,70.88,0,0,1-12,6.38,73.82,73.82,0,0,1-12.83,3.93c-1.44.3-2.88.53-4.31.75-.61,1.69-1.25,3.38-2,5a178,178,0,0,1-20.07,36.52,189.65,189.65,0,0,1-26.75,30.06c-19.5,17.79-41.64,31-64.56,40.92a308.51,308.51,0,0,1-71,20.69,317.53,317.53,0,0,1-73.19,3.74,300.19,300.19,0,0,1-72.52-13.53c-23.67-7.72-46.78-18.71-67.68-34.22a197,197,0,0,1-29.31-26.47,175.63,175.63,0,0,1-12.73-15.84l-1.49-2.07-1.43-2.14-2.81-4.31c-1.76-3-3.61-5.86-5.21-8.93a180.83,180.83,0,0,1-13.1-30c.06-.88.09-1.77.13-2.65h-.93c-2.54-.07-5.05-.29-7.58-.61-1.25-.17-2.52-.34-3.78-.57l-1.93-.38-1-.21-.74-.19-.62-.11-.93-.2c-.63-.13-1.21-.28-1.8-.44-1.18-.3-2.33-.63-3.45-1a64.12,64.12,0,0,1-6.63-2.59A62.3,62.3,0,0,1,273.1,532a56.59,56.59,0,0,1-10.18-10.16,55.85,55.85,0,0,1-7.17-12.43,59.66,59.66,0,0,1-3.83-13.54,73.38,73.38,0,0,1-1-13.66,61.5,61.5,0,0,1,.37-6.88c.26-2.28.6-4.5,1-6.7.17-.88.36-1.76.54-2.64l-.75-.2-1.84-.66a29.64,29.64,0,0,1-3.61-1.54,31,31,0,0,1-3.49-2,12.34,12.34,0,0,1-1.6-1.12l-1.49-1.18a42.5,42.5,0,0,1-5.57-5.26c-.86-.95-1.56-2-2.34-3L231,449.47c-.34-.53-.63-1.1-.95-1.65a43.82,43.82,0,0,1-5.23-14.12l-.59-3.65c-.11-1.23-.17-2.45-.24-3.66-.05-.61-.09-1.22-.1-1.82l0-1.81c.06-1.21,0-2.42.16-3.61a66.41,66.41,0,0,1,2.8-14c.33-1.13.79-2.23,1.18-3.35s.82-2.21,1.35-3.28l1.5-3.22,1.72-3.12a34.11,34.11,0,0,1,1.9-3c.69-1,1.3-2,2.06-3a54.52,54.52,0,0,1,29.89-20,42.35,42.35,0,0,1,7.55-1,39.58,39.58,0,0,1,7.59.31A61.42,61.42,0,0,1,295.45,369c8.6,3.19,15.93,7.33,23,10.08.88.35,1.77.69,2.63,1s1.74.6,2.61.82a22.26,22.26,0,0,0,2.58.67l1.28.29.31.07H328l.27.05a2.42,2.42,0,0,0,1.63-.33,7.67,7.67,0,0,0,2.23-2.17,20.64,20.64,0,0,0,1.61-2.71A91.67,91.67,0,0,0,338.11,362c.15-.86.28-1.82.36-2.51l0-.18a7.56,7.56,0,0,1,.64-2.17c1-5,2-10.19,3.33-15.48.87-3.53,1.91-6.69,2.87-10l1.48-4.91c.52-1.65,1.1-3.38,1.77-5.13a39,39,0,0,1,5.9-10.76,23.24,23.24,0,0,1,5.19-4.81,22.74,22.74,0,0,1,6.57-3.08,34,34,0,0,1,12.61-.84c1.94.19,3.71.54,5.51.85l2.69.49,2.64.66c14.15,3.5,26.91,10.41,38.2,18.42A294,294,0,0,1,454.6,344.4l8.37-4.77c3.71-2.09,7.47-4.17,11.28-6.19a255,255,0,0,1,23.64-11.18c16.33-6.56,34.13-11.13,52.55-10.66A96.56,96.56,0,0,1,564.2,313c2.29.33,4.58.94,6.85,1.44,2.2.65,4.46,1.19,6.61,2a109.25,109.25,0,0,1,24.55,11.78A101.62,101.62,0,0,1,623,345.93a79.57,79.57,0,0,1,11.91,17.62,344.52,344.52,0,0,1,34-8,136.1,136.1,0,0,1,43-1A122.76,122.76,0,0,1,749.49,366a74.63,74.63,0,0,1,16.63-4.31c1.11-.15,2.22-.33,3.34-.43l3.38-.2a62.17,62.17,0,0,1,6.82.07,28.75,28.75,0,0,1,3.43.31l3.44.44c1.15.21,2.29.51,3.44.77s2.28.48,3.4.89l3.37,1.17c.56.2,1.12.37,1.67.6l1.64.76,3.25,1.56c1.05.57,2.05,1.26,3.09,1.9a50.64,50.64,0,0,1,11,9.44,23.39,23.39,0,0,1,2.2,2.84l2.09,2.91,1.67,3.1.8,1.56.41.79.18.39.26.56a27.51,27.51,0,0,1,1.31,4c.32,1.21.53,2.37.72,3.54a44.49,44.49,0,0,1,.6,7,40.51,40.51,0,0,1-.6,7.36c-.09.64-.25,1.27-.4,1.92a15.81,15.81,0,0,1-.54,1.92,19.37,19.37,0,0,1-.64,1.83c-.22.57-.45,1.12-.69,1.67A52.88,52.88,0,0,1,817.46,432c-.53.67-1.11,1.32-1.7,2q3.88,4.49,7.37,9.36A77.55,77.55,0,0,1,834.72,466.34Zm-19.13,22.89A61.92,61.92,0,0,0,811,450.64a46.76,46.76,0,0,0-5.65-8.85l-.81-1.05s-.57-.67-.92-1.19a9.08,9.08,0,0,1-.92-1.71,10.28,10.28,0,0,1,2-11.06c.25-.27.51-.56.76-.88.5-.61,1-1.25,1.45-1.92a24.81,24.81,0,0,0,3.81-8.57,11.92,11.92,0,0,0,.29-3.87,24.6,24.6,0,0,0-.68-4.14,36.3,36.3,0,0,0-1.35-4.3c-.29-.69-.57-1.4-.86-2a7.36,7.36,0,0,0-.78-1.41l-.07-.09-.17-.23-.33-.46-.66-.91-1.27-1.85c-1-1.08-1.87-2.26-2.86-3.29a33.07,33.07,0,0,0-14.7-8.59,48.35,48.35,0,0,0-18.42-1.19,72,72,0,0,0-19,4.94l-.22.09a10.05,10.05,0,0,1-10.16-1.52.52.52,0,0,1-.13-.06c-9.91-5.11-19.93-9.3-31-11.39a123.21,123.21,0,0,0-18.27-2.21,135.94,135.94,0,0,0-18.67.61c-13,1.28-26,3.25-38.87,5.71l-5.94,1.12-2.48-5.42a67.4,67.4,0,0,0-12.51-18.82,86.82,86.82,0,0,0-18-14.54,96,96,0,0,0-21.11-9.78c-1.83-.64-3.7-1.05-5.54-1.56s-3.65-.85-5.55-1.11a80.09,80.09,0,0,0-11.42-1A106.72,106.72,0,0,0,527,330.68a143.52,143.52,0,0,0-22.75,7.19c-7.46,3.05-14.84,6.56-22.15,10.38-3.65,1.92-7.29,3.92-10.94,5.94l-3.46,1.94c1,1.07,2,2.18,3,3.41a28,28,0,0,1,2.61,3.91,11.74,11.74,0,0,1,.61,1.23,10.23,10.23,0,0,1,.56,1.33c.17.52.33,1.05.47,1.57s.16.85.25,1.28a23,23,0,0,1,.3,5.11,19.43,19.43,0,0,1-1.21,5.46,18.34,18.34,0,0,1-2.89,4.87,21,21,0,0,1-3.92,3.56,28.15,28.15,0,0,1-8.47,3.89,48.66,48.66,0,0,1-16.61,1.56,39.86,39.86,0,0,1-8.53-1.5,20.24,20.24,0,0,1-8.91-5.23,12.32,12.32,0,0,1-3.3-6.36,15.4,15.4,0,0,1-.2-1.88c0-.61,0-1.21.1-1.8a13.82,13.82,0,0,1,.32-1.63l.19-.79.24-.69a27.68,27.68,0,0,1,5.13-8.34,78.48,78.48,0,0,1,11.85-11c1.18-.92,2.38-1.77,3.6-2.61a262.68,262.68,0,0,0-22.62-17.88c-10.54-7.32-21.86-13.16-33.77-15.95l-2.22-.52-2.25-.37c-1.49-.25-3-.53-4.41-.62a19.41,19.41,0,0,0-7.29.47,8.57,8.57,0,0,0-2.45,1.18,9.73,9.73,0,0,0-2.08,2,24.94,24.94,0,0,0-3.51,6.86q-.75,2.07-1.44,4.38l-1.34,4.71c-.87,3.14-1.85,6.36-2.54,9.33-1.44,6.14-2.47,12.67-3.83,19.45-1.45,7.24-3,14.85-7,20.63-.53,1-1.09,1.88-1.74,2.83a22.19,22.19,0,0,1-6.71,6.43,18.05,18.05,0,0,1-5,2.07,20.78,20.78,0,0,1-2.72.42,19.4,19.4,0,0,1-2.64,0l-1.28-.14-.63-.07-.46-.09-1.79-.36a35,35,0,0,1-3.46-.85c-1.17-.28-2.28-.64-3.37-1s-2.18-.75-3.25-1.15c-8.48-3.24-15.76-7.28-22.85-9.8a46.32,46.32,0,0,0-10.36-2.58,25.44,25.44,0,0,0-4.89-.18,27.52,27.52,0,0,0-4.81.71,37.73,37.73,0,0,0-17.51,10.29A46.5,46.5,0,0,0,241.83,410a52.17,52.17,0,0,0-2.15,10.48c-.08.88-.05,1.75-.11,2.63l0,1.32c0,.44.05.87.07,1.3.06.85.08,1.72.16,2.57l.41,2.52a28.11,28.11,0,0,0,3.35,9.22c.21.34.38.7.59,1.05l.72,1c.49.62.89,1.32,1.44,1.9a25,25,0,0,0,3.51,3.31,21.14,21.14,0,0,0,1.88,1.45,17.42,17.42,0,0,0,1.93,1.13,16.21,16.21,0,0,0,2.11,1l1.1.41.66.21a54.08,54.08,0,0,1,4.41-8.4,29.58,29.58,0,0,1,11.46-10.69,23.3,23.3,0,0,1,4.12-1.51c.71-.18,1.45-.3,2.17-.43a15.16,15.16,0,0,1,2.44-.2,16.51,16.51,0,0,1,9.48,2.88,15.76,15.76,0,0,1,3.81,3.79,14.09,14.09,0,0,1,0,16.07l-.41.56-.31.38-.64.77-1.29,1.52c-.91.94-1.88,1.81-2.86,2.7s-2.06,1.6-3.14,2.32-2.18,1.37-3.33,1.93a41.66,41.66,0,0,1-14.4,4.24c-1.05.11-2.1.19-3.15.23-.23,1.12-.44,2.24-.63,3.38-.32,1.9-.56,3.79-.7,5.68a45.17,45.17,0,0,0-.1,5.59,58.2,58.2,0,0,0,1.19,11.2,46.45,46.45,0,0,0,3.29,10.37,40.15,40.15,0,0,0,13.35,16.16,45.87,45.87,0,0,0,9.36,5.19,47.76,47.76,0,0,0,5.07,1.79q1.31.39,2.58.69l1.23.26.59.11.42.06.94.19,1.2.24,1.44.24c1,.16,2,.28,3,.39,2,.2,4.07.32,6.11.33a64.42,64.42,0,0,0,12.12-.92,53.64,53.64,0,0,0,11.45-3.25A49.43,49.43,0,0,0,348,519.67a50.56,50.56,0,0,0,8.8-7.82c.69-.7,1.3-1.51,1.94-2.26.31-.38.68-.79.94-1.13l.76-1a26.62,26.62,0,0,0,2.5-4.53,27.67,27.67,0,0,0,.36-20.79v0l-.26-.73a7,7,0,0,1,2.75-8.11,39.09,39.09,0,0,0,13.68-15.91,37.91,37.91,0,0,0,3.29-20.76c-.15-.89-.25-1.75-.42-2.66s-.39-1.83-.63-2.73a53.93,53.93,0,0,0-1.64-5.39,61.44,61.44,0,0,0-4.88-10.27,79.64,79.64,0,0,0-14.79-17.9l0,0A5.74,5.74,0,0,1,368,389a90.72,90.72,0,0,1,17.6,20.13,74.42,74.42,0,0,1,6.21,12.16c.81,2.15,1.58,4.32,2.2,6.55.33,1.09.59,2.21.86,3.33s.45,2.35.68,3.53a51.15,51.15,0,0,1-3.64,28.19,52.92,52.92,0,0,1-13.4,18.48,41.23,41.23,0,0,1-.63,27.5,42.91,42.91,0,0,1-3.88,7.57l-1.21,1.77c-.41.58-.79,1-1.2,1.56-.79,1-1.55,2.05-2.44,3a65.53,65.53,0,0,1-11.53,10.51,66.82,66.82,0,0,1-26.58,11.09,158.73,158.73,0,0,0,11.12,23.83c1.45,2.7,3.16,5.22,4.74,7.82l2.56,3.75,1.28,1.89,1.37,1.79a152.34,152.34,0,0,0,11.53,13.84,182.51,182.51,0,0,0,26.86,23.42c19.21,13.78,40.68,23.57,62.86,30.37a279.57,279.57,0,0,0,68.23,11.46,305.46,305.46,0,0,0,68.82-4.69,288.67,288.67,0,0,0,66.16-20,231.79,231.79,0,0,0,30.61-16.37,195.39,195.39,0,0,0,27.68-21.11,158.8,158.8,0,0,0,37.68-51.56l-2.4-.38c-2.1-.47-4.21-.84-6.29-1.42a85.57,85.57,0,0,1-12.28-4.2c-1-.41-2-.93-2.94-1.41s-2-1-2.91-1.51l-2.85-1.64-2.76-1.82A57.4,57.4,0,0,1,710,527.66a25.54,25.54,0,0,1-2.23-2.61c-.7-.92-1.44-1.8-2.08-2.74a45.6,45.6,0,0,1-3.47-6.09,20.75,20.75,0,0,1-1.36-3.26c-.38-1.12-.79-2.23-1.11-3.37a43.61,43.61,0,0,1-1.17-7,42.7,42.7,0,0,1,0-7c.07-1.15.33-2.26.49-3.39s.32-2.19.65-3.45a31.16,31.16,0,0,1,2.71-6.85c0-.09.11-.16.15-.24-1.5-1-3.09-2.06-4.78-3.27a44.17,44.17,0,0,1-5.37-4.54c-.84-.88-1.67-1.84-2.42-2.79s-1.39-1.84-2-2.82a42.51,42.51,0,0,1-5.75-12.61,40,40,0,0,1-1.25-6.79,63.58,63.58,0,0,1-.43-6.6,67.74,67.74,0,0,1,4.93-25.71,62.91,62.91,0,0,1,14.87-21.93,6.47,6.47,0,1,1,9,9.33l-.28.26,0,0a47.12,47.12,0,0,0-12.31,17,52.6,52.6,0,0,0-4.14,20.92,49.33,49.33,0,0,0,.36,5.32,28.73,28.73,0,0,0,1,4.95,31.52,31.52,0,0,0,4.29,9c.46.69,1,1.35,1.51,2s1,1.13,1.55,1.68a30.3,30.3,0,0,0,3.86,3c2.89,2,6.61,4,10.31,6.89a6.38,6.38,0,0,1,1.48,8.35l-.16.25a50,50,0,0,0-2.52,4.4,16.43,16.43,0,0,0-1.36,3.91,19.31,19.31,0,0,0-.26,2.23c-.06.79-.22,1.57-.2,2.34a26.06,26.06,0,0,0,.31,4.53,25,25,0,0,0,1,4.32c.26.7.61,1.36.88,2a11.69,11.69,0,0,0,1,2,28,28,0,0,0,2.54,3.74c.49.59,1,1.14,1.55,1.71a14.4,14.4,0,0,0,1.67,1.64c4.6,4.29,10.63,7.42,16.9,9.64a68.75,68.75,0,0,0,19.83,3.58,66.24,66.24,0,0,0,19.7-2.25,60.08,60.08,0,0,0,17.25-8c.64-.44,1.23-1,1.86-1.41s1.28-.89,1.82-1.44a39.37,39.37,0,0,0,3.41-3.16l1.61-1.68c.53-.58,1-1.24,1.5-1.84a35.72,35.72,0,0,0,2.86-3.78A50,50,0,0,0,815.59,489.23Zm-352.92-116a9.18,9.18,0,0,0-.19-2.14,2.16,2.16,0,0,0-.1-.52.29.29,0,0,1-.05-.17c0-.05-.12-.22-.16-.33s-.09-.23-.2-.41a17.88,17.88,0,0,0-1.47-2.1,45.5,45.5,0,0,0-4.72-4.87l-2,1.05c-2,1.06-4,2.18-6,3.29A64,64,0,0,0,437,374.21a12.34,12.34,0,0,0-3,3.59,2.24,2.24,0,0,0-.16.34,8.1,8.1,0,0,0,3.58,1.86,26.06,26.06,0,0,0,5.81.93,36.81,36.81,0,0,0,12.23-1.24,16,16,0,0,0,4.71-2.17,8.24,8.24,0,0,0,1.45-1.33,6.08,6.08,0,0,0,.79-1.36A6.62,6.62,0,0,0,462.67,373.19ZM284.77,445.4a1.17,1.17,0,0,0,.38-1,1.65,1.65,0,0,0-.74-1.17,4.08,4.08,0,0,0-2.31-.67,2.59,2.59,0,0,0-.67,0c-.3.07-.61.1-.89.19a9.7,9.7,0,0,0-1.74.66,17.54,17.54,0,0,0-6.39,6.37c-.51.8-1,1.68-1.48,2.57a27,27,0,0,0,6.44-1.75c.77-.31,1.43-.72,2.16-1.05s1.32-.85,2-1.27,1.21-1,1.78-1.47Z"/><path class="cls-3" d="M355.28,499.34c-.43.26-.64.4-.73.46A6.34,6.34,0,0,0,355.28,499.34Zm461.2-29.16a57.61,57.61,0,0,1-.89,19.05,50,50,0,0,1-7.52,17,35.72,35.72,0,0,1-2.86,3.78c-.51.6-1,1.26-1.5,1.84l-1.61,1.68a39.37,39.37,0,0,1-3.41,3.16c-.54.55-1.23.94-1.82,1.44s-1.22,1-1.86,1.41a60.08,60.08,0,0,1-17.25,8,66.24,66.24,0,0,1-19.7,2.25,68.75,68.75,0,0,1-19.83-3.58c-6.27-2.22-12.3-5.35-16.9-9.64a14.4,14.4,0,0,1-1.67-1.64c-.51-.57-1.06-1.12-1.55-1.71a28,28,0,0,1-2.54-3.74,11.69,11.69,0,0,1-1-2c-.27-.68-.62-1.34-.88-2a25,25,0,0,1-1-4.32,26.06,26.06,0,0,1-.31-4.53c0-.77.14-1.55.2-2.34a19.31,19.31,0,0,1,.26-2.23,16.43,16.43,0,0,1,1.36-3.91,50,50,0,0,1,2.52-4.4l.16-.25a6.38,6.38,0,0,0-1.48-8.35c-3.7-2.89-7.42-4.9-10.31-6.89a30.3,30.3,0,0,1-3.86-3c-.54-.55-1-1.08-1.55-1.68s-1.05-1.31-1.51-2a31.52,31.52,0,0,1-4.29-9,28.73,28.73,0,0,1-1-4.95,49.33,49.33,0,0,1-.36-5.32,52.6,52.6,0,0,1,4.14-20.92,47.12,47.12,0,0,1,12.31-17l0,0,.28-.26a6.47,6.47,0,1,0-9-9.33,62.91,62.91,0,0,0-14.87,21.93,67.74,67.74,0,0,0-4.93,25.71,63.58,63.58,0,0,0,.43,6.6,40,40,0,0,0,1.25,6.79,42.51,42.51,0,0,0,5.75,12.61c.64,1,1.33,1.9,2,2.82s1.58,1.91,2.42,2.79a44.17,44.17,0,0,0,5.37,4.54c1.69,1.21,3.28,2.26,4.78,3.27,0,.08-.1.15-.15.24a31.16,31.16,0,0,0-2.71,6.85c-.33,1.26-.45,2.31-.65,3.45s-.42,2.24-.49,3.39a42.7,42.7,0,0,0,0,7,43.61,43.61,0,0,0,1.17,7c.32,1.14.73,2.25,1.11,3.37a20.75,20.75,0,0,0,1.36,3.26,45.6,45.6,0,0,0,3.47,6.09c.64.94,1.38,1.82,2.08,2.74a25.54,25.54,0,0,0,2.23,2.61,57.4,57.4,0,0,0,10.15,8.74l2.76,1.82,2.85,1.64c.94.56,1.91,1,2.91,1.51s1.94,1,2.94,1.41a85.57,85.57,0,0,0,12.28,4.2c2.08.58,4.19.95,6.29,1.42l2.4.38a158.8,158.8,0,0,1-37.68,51.56,195.39,195.39,0,0,1-27.68,21.11,231.79,231.79,0,0,1-30.61,16.37,288.67,288.67,0,0,1-66.16,20,305.46,305.46,0,0,1-68.82,4.69,279.57,279.57,0,0,1-68.23-11.46c-22.18-6.8-43.65-16.59-62.86-30.37a182.51,182.51,0,0,1-26.86-23.42,152.34,152.34,0,0,1-11.53-13.84l-1.37-1.79-1.28-1.89L346.91,576c-1.58-2.6-3.29-5.12-4.74-7.82a158.73,158.73,0,0,1-11.12-23.83,66.82,66.82,0,0,0,26.58-11.09,65.53,65.53,0,0,0,11.53-10.51c.89-.95,1.65-2,2.44-3,.41-.52.79-1,1.2-1.56l1.21-1.77a42.91,42.91,0,0,0,3.88-7.57,41.23,41.23,0,0,0,.63-27.5,52.92,52.92,0,0,0,13.4-18.48,51.15,51.15,0,0,0,3.64-28.19c-.23-1.18-.42-2.38-.68-3.53s-.53-2.24-.86-3.33c-.62-2.23-1.39-4.4-2.2-6.55a74.42,74.42,0,0,0-6.21-12.16A90.72,90.72,0,0,0,368,389a5.74,5.74,0,0,0-7.65,8.57l0,0a79.64,79.64,0,0,1,14.79,17.9,61.44,61.44,0,0,1,4.88,10.27,53.93,53.93,0,0,1,1.64,5.39c.24.9.43,1.82.63,2.73s.27,1.77.42,2.66a37.91,37.91,0,0,1-3.29,20.76,39.09,39.09,0,0,1-13.68,15.91,7,7,0,0,0-2.75,8.11l.26.73v0a27.67,27.67,0,0,1-.36,20.79,26.62,26.62,0,0,1-2.5,4.53l-.76,1c-.26.34-.63.75-.94,1.13-.64.75-1.25,1.56-1.94,2.26a50.56,50.56,0,0,1-8.8,7.82,49.43,49.43,0,0,1-10.29,5.58,53.64,53.64,0,0,1-11.45,3.25,64.42,64.42,0,0,1-12.12.92c-2,0-4.1-.13-6.11-.33-1-.11-2-.23-3-.39l-1.44-.24-1.2-.24-.94-.19L301,528l-.59-.11-1.23-.26q-1.28-.3-2.58-.69a47.76,47.76,0,0,1-5.07-1.79,45.87,45.87,0,0,1-9.36-5.19,40.15,40.15,0,0,1-13.35-16.16,46.45,46.45,0,0,1-3.29-10.37,58.2,58.2,0,0,1-1.19-11.2,45.17,45.17,0,0,1,.1-5.59c.14-1.89.38-3.78.7-5.68.19-1.14.4-2.26.63-3.38,1.05,0,2.1-.12,3.15-.23a41.66,41.66,0,0,0,14.4-4.24c1.15-.56,2.23-1.28,3.33-1.93s2.1-1.54,3.14-2.32,1.95-1.76,2.86-2.7l1.29-1.52.64-.77.31-.38.41-.56a14.09,14.09,0,0,0,0-16.07,15.76,15.76,0,0,0-3.81-3.79,16.51,16.51,0,0,0-9.48-2.88,15.16,15.16,0,0,0-2.44.2c-.72.13-1.46.25-2.17.43a23.3,23.3,0,0,0-4.12,1.51A29.58,29.58,0,0,0,261.87,443a54.08,54.08,0,0,0-4.41,8.4l-.66-.21-1.1-.41a16.21,16.21,0,0,1-2.11-1,17.42,17.42,0,0,1-1.93-1.13,21.14,21.14,0,0,1-1.88-1.45,25,25,0,0,1-3.51-3.31c-.55-.58-1-1.28-1.44-1.9l-.72-1c-.21-.35-.38-.71-.59-1.05a28.11,28.11,0,0,1-3.35-9.22l-.41-2.52c-.08-.85-.1-1.72-.16-2.57,0-.43-.07-.86-.07-1.3l0-1.32c.06-.88,0-1.75.11-2.63A52.17,52.17,0,0,1,241.83,410a46.5,46.5,0,0,1,10.74-18.21,37.73,37.73,0,0,1,17.51-10.29,27.52,27.52,0,0,1,4.81-.71,25.44,25.44,0,0,1,4.89.18,46.32,46.32,0,0,1,10.36,2.58c7.09,2.52,14.37,6.56,22.85,9.8,1.07.4,2.13.8,3.25,1.15s2.2.72,3.37,1a35,35,0,0,0,3.46.85l1.79.36.46.09.63.07,1.28.14a19.4,19.4,0,0,0,2.64,0,20.78,20.78,0,0,0,2.72-.42,18.05,18.05,0,0,0,5-2.07,22.19,22.19,0,0,0,6.71-6.43c.65-1,1.21-1.88,1.74-2.83,4-5.78,5.58-13.39,7-20.63,1.36-6.78,2.39-13.31,3.83-19.45.69-3,1.67-6.19,2.54-9.33l1.34-4.71q.69-2.31,1.44-4.38a24.94,24.94,0,0,1,3.51-6.86,9.73,9.73,0,0,1,2.08-2,8.57,8.57,0,0,1,2.45-1.18,19.41,19.41,0,0,1,7.29-.47c1.39.09,2.92.37,4.41.62l2.25.37,2.22.52c11.91,2.79,23.23,8.63,33.77,15.95A262.68,262.68,0,0,1,442.8,351.5c-1.22.84-2.42,1.69-3.6,2.61a78.48,78.48,0,0,0-11.85,11,27.68,27.68,0,0,0-5.13,8.34l-.24.69-.19.79a13.82,13.82,0,0,0-.32,1.63c-.06.59-.08,1.19-.1,1.8a15.4,15.4,0,0,0,.2,1.88,12.32,12.32,0,0,0,3.3,6.36,20.24,20.24,0,0,0,8.91,5.23,39.86,39.86,0,0,0,8.53,1.5,48.66,48.66,0,0,0,16.61-1.56,28.15,28.15,0,0,0,8.47-3.89,21,21,0,0,0,3.92-3.56,18.34,18.34,0,0,0,2.89-4.87,19.43,19.43,0,0,0,1.21-5.46,23,23,0,0,0-.3-5.11c-.09-.43-.1-.73-.25-1.28s-.3-1.05-.47-1.57a10.23,10.23,0,0,0-.56-1.33,11.74,11.74,0,0,0-.61-1.23,28,28,0,0,0-2.61-3.91c-1-1.23-2-2.34-3-3.41l3.46-1.94c3.65-2,7.29-4,10.94-5.94,7.31-3.82,14.69-7.33,22.15-10.38A143.52,143.52,0,0,1,527,330.68a106.72,106.72,0,0,1,23.16-2.51,80.09,80.09,0,0,1,11.42,1c1.9.26,3.7.73,5.55,1.11s3.71.92,5.54,1.56a96,96,0,0,1,21.11,9.78,86.82,86.82,0,0,1,18,14.54,67.4,67.4,0,0,1,12.51,18.82l2.48,5.42,5.94-1.12c12.92-2.46,25.87-4.43,38.87-5.71a135.94,135.94,0,0,1,18.67-.61,123.21,123.21,0,0,1,18.27,2.21c11,2.09,21,6.28,31,11.39a.52.52,0,0,0,.13.06,10.05,10.05,0,0,0,10.16,1.52l.22-.09a72,72,0,0,1,19-4.94,48.35,48.35,0,0,1,18.42,1.19,33.07,33.07,0,0,1,14.7,8.59c1,1,1.85,2.21,2.86,3.29l1.27,1.85.66.91.33.46.17.23.07.09a7.36,7.36,0,0,1,.78,1.41c.29.61.57,1.32.86,2a36.3,36.3,0,0,1,1.35,4.3,24.6,24.6,0,0,1,.68,4.14,11.92,11.92,0,0,1-.29,3.87,24.81,24.81,0,0,1-3.81,8.57c-.46.67-.95,1.31-1.45,1.92-.25.32-.51.61-.76.88a10.28,10.28,0,0,0-2,11.06,9.08,9.08,0,0,0,.92,1.71c.35.52.91,1.17.92,1.19l.81,1.05a46.76,46.76,0,0,1,5.65,8.85A57.59,57.59,0,0,1,816.48,470.18ZM651.17,507.77a3.59,3.59,0,0,0,3.38-3.63,3.54,3.54,0,0,0-1.31-2.74,3.6,3.6,0,0,0-1.18-3.6l-4-3.39a4.06,4.06,0,0,0-.3-1.38,3.6,3.6,0,0,0-2.72-2.11,5.32,5.32,0,0,0-1.38-.05,3.58,3.58,0,0,0-3.6-2.05q-17.5,1.68-35,3.33a3.59,3.59,0,0,0-2.61,5.62,6.48,6.48,0,0,0,3.73,8.85l.71.08a3.84,3.84,0,0,0-.23.82,3.61,3.61,0,0,0,1.68,3.64l-.13.39a3.6,3.6,0,0,0-.27,7.16c4.13.55,8.27.88,12.41,1,8.94.34,17.87-.06,26.6-.45a3.6,3.6,0,0,0,1.53-.42l1.76.13a3.59,3.59,0,0,0,.75-7.14l-.67-.09a3.57,3.57,0,0,0,1.07-2.27,3.39,3.39,0,0,0-.28-1.74Zm-30.64,42.65a3.95,3.95,0,0,0-.56-7.87,179.87,179.87,0,0,1-22.65-.2,86.19,86.19,0,0,1-21.45-4.26,56.37,56.37,0,0,1-18.22-10.35,40.12,40.12,0,0,1-10.64-14l8.19.55h.1a3.6,3.6,0,0,0,1.86-6.76,3.65,3.65,0,0,0-3.6-2.76c-2.24.06-4.48.13-6.74.25l-16.13.56a3.6,3.6,0,1,0,.25,7.19l2.59-.09a3.28,3.28,0,0,0,0,.46c-1.83,6.28-4.13,12.18-7.56,17.14a42.8,42.8,0,0,1-14.51,12.87,61.26,61.26,0,0,1-19.24,6.7,104.73,104.73,0,0,1-21.1,1.44h0a3.43,3.43,0,0,0-.36,6.84,114.06,114.06,0,0,0,22.7,0,70.21,70.21,0,0,0,22.51-6.21A53.54,53.54,0,0,0,535,537.07a57,57,0,0,0,5.91-9.23,55.83,55.83,0,0,0,9.33,9.06,67.51,67.51,0,0,0,22.51,11.2,96.86,96.86,0,0,0,24.13,3.43A191.38,191.38,0,0,0,620.53,550.42Zm-134.35-30a3.59,3.59,0,0,0,3.27-3.68,3.53,3.53,0,0,0-.48-1.68,2.32,2.32,0,0,0,0-.46,3.55,3.55,0,0,0-1.1-2.76,3.76,3.76,0,0,0,.31-1.5,43.9,43.9,0,0,1-5.53-6.83A3.56,3.56,0,0,0,481,500a3.94,3.94,0,0,0,.09-.76c.65-.11,1.31-.22,2-.38a3.59,3.59,0,0,0-.53-7.09l-3.28-.23a3.59,3.59,0,0,0-2.78-1.49.1.1,0,0,0-.07,0c-10-.2-20.13-.11-30.1.26A3.63,3.63,0,0,0,443,492.9l-.17.3a3.64,3.64,0,0,0-1.51,3.08,3.33,3.33,0,0,1,.4,4.66,3.58,3.58,0,0,0,1.28,2.82,3.28,3.28,0,0,0-.23,1,3.61,3.61,0,0,0,.82,2.56,3.38,3.38,0,0,0-.26,1.32,3.62,3.62,0,0,0,1.87,3.2.06.06,0,0,1,0,0l-1.15.1a210.48,210.48,0,0,1-2.24,9,3.6,3.6,0,0,0,3.43,3.25,2.68,2.68,0,0,0,.49,0ZM272.69,389.31c-.08.66.08,1.35,0,0Z"/><path class="cls-2" d="M654.55,504.14a3.59,3.59,0,0,1-3.38,3.63h-.08a3.39,3.39,0,0,1,.28,1.74,3.57,3.57,0,0,1-1.07,2.27l.67.09a3.59,3.59,0,0,1-.75,7.14l-1.76-.13a3.6,3.6,0,0,1-1.53.42c-8.73.39-17.66.79-26.6.45-4.14-.16-8.28-.49-12.41-1a3.6,3.6,0,0,1,.27-7.16l.13-.39a3.61,3.61,0,0,1-1.68-3.64,3.84,3.84,0,0,1,.23-.82l-.71-.08a4.88,4.88,0,0,1-3.73-8.85,3.59,3.59,0,0,1,2.61-5.62q17.52-1.63,35-3.33a3.58,3.58,0,0,1,3.6,2.05,5.32,5.32,0,0,1,1.38.05,3.6,3.6,0,0,1,2.72,2.11,4.06,4.06,0,0,1,.3,1.38l4,3.39a3.6,3.6,0,0,1,1.18,3.6A3.54,3.54,0,0,1,654.55,504.14Z"/><path class="cls-2" d="M624.07,546.32a4,4,0,0,1-3.54,4.1,191.38,191.38,0,0,1-23.68,1.11,96.86,96.86,0,0,1-24.13-3.43,67.51,67.51,0,0,1-22.51-11.2,55.83,55.83,0,0,1-9.33-9.06,57,57,0,0,1-5.91,9.23A53.54,53.54,0,0,1,515.9,551.9a70.21,70.21,0,0,1-22.51,6.21,114.06,114.06,0,0,1-22.7,0,3.43,3.43,0,0,1,.36-6.84h0a104.73,104.73,0,0,0,21.1-1.44,61.26,61.26,0,0,0,19.24-6.7,42.8,42.8,0,0,0,14.51-12.87c3.43-5,5.73-10.86,7.56-17.14a3.28,3.28,0,0,1,0-.46l-2.59.09a3.6,3.6,0,1,1-.25-7.19l16.13-.56c2.26-.12,4.5-.19,6.74-.25a3.65,3.65,0,0,1,3.6,2.76,3.6,3.6,0,0,1-1.86,6.76h-.1l-8.19-.55a40.12,40.12,0,0,0,10.64,14,56.37,56.37,0,0,0,18.22,10.35,86.19,86.19,0,0,0,21.45,4.26,179.87,179.87,0,0,0,22.65.2A4,4,0,0,1,624.07,546.32Z"/><path class="cls-2" d="M489.45,516.77a3.59,3.59,0,0,1-3.27,3.68l-40.45,3.81a2.68,2.68,0,0,1-.49,0,77.35,77.35,0,0,0-4.47-8.59,3.6,3.6,0,0,1,3.28-3.68l1.15-.1a.06.06,0,0,0,0,0,3.62,3.62,0,0,1-1.87-3.2,3.38,3.38,0,0,1,.26-1.32,3.61,3.61,0,0,1-.82-2.56,3.28,3.28,0,0,1,.23-1,11.75,11.75,0,0,0-1.68-7.48,3.64,3.64,0,0,1,1.51-3.08l.17-.3a3.63,3.63,0,0,1,3.32-2.59c10-.37,20.09-.46,30.1-.26a.1.1,0,0,1,.07,0,3.59,3.59,0,0,1,2.78,1.49l3.28.23a3.59,3.59,0,0,1,.53,7.09c-.66.16-1.32.27-2,.38a3.94,3.94,0,0,1-.09.76,3.56,3.56,0,0,1,1.66,3.52,43.9,43.9,0,0,0,5.53,6.83,3.76,3.76,0,0,1-.31,1.5,3.55,3.55,0,0,1,1.1,2.76,2.32,2.32,0,0,1,0,.46A3.53,3.53,0,0,1,489.45,516.77Z"/><path class="cls-3" d="M462.48,371.05a9.18,9.18,0,0,1,.19,2.14,6.62,6.62,0,0,1-.33,1.64,6.08,6.08,0,0,1-.79,1.36,8.24,8.24,0,0,1-1.45,1.33,16,16,0,0,1-4.71,2.17,36.81,36.81,0,0,1-12.23,1.24,26.06,26.06,0,0,1-5.81-.93,8.1,8.1,0,0,1-3.58-1.86,2.24,2.24,0,0,1,.16-.34,12.34,12.34,0,0,1,3-3.59A64,64,0,0,1,447.79,367c2-1.11,4-2.23,6-3.29l2-1.05a45.5,45.5,0,0,1,4.72,4.87,17.88,17.88,0,0,1,1.47,2.1c.11.18.12.28.2.41s.16.28.16.33a.29.29,0,0,0,.05.17A2.16,2.16,0,0,1,462.48,371.05Z"/><path class="cls-2" d="M354.55,499.8c.09-.06.3-.2.73-.46A6.34,6.34,0,0,1,354.55,499.8Z"/><path class="cls-2" d="M272.69,389.31c.08,1.35-.08.66,0,0Z"/><path class="cls-2" d="M1119.32,367.26q-24.22,0-37.11,14.42t-12.9,40.84q0,26.7,14.31,41.13t38.53,14.43q12.88,0,21.86-3.37a152,152,0,0,0,17.14-7.68,29.57,29.57,0,0,1,11.32,24.25q0,12.6-14.31,21.34t-43.56,8.75a131.7,131.7,0,0,1-39.63-5.83,89,89,0,0,1-32.39-18,84.82,84.82,0,0,1-21.86-30.7q-8-18.57-8-44.36,0-24,7.71-42.22a87.66,87.66,0,0,1,52.36-49.88,112.48,112.48,0,0,1,38.37-6.45q28.93,0,44.82,9.21t15.88,23.64a23.46,23.46,0,0,1-4.09,13.81,33.23,33.23,0,0,1-9.44,9.21,104.09,104.09,0,0,0-17.45-8.9A58.07,58.07,0,0,0,1119.32,367.26Z"/><path class="cls-2" d="M1176.55,422.52q0-24,7.71-42.37a87.7,87.7,0,0,1,21.07-30.85,89.73,89.73,0,0,1,31.45-18.88,122.07,122.07,0,0,1,78.31,0,91.43,91.43,0,0,1,31.61,18.88,86.76,86.76,0,0,1,21.23,30.85q7.69,18.42,7.7,42.37T1368.08,465a85.67,85.67,0,0,1-20.91,31,89.68,89.68,0,0,1-31.61,18.88,118.06,118.06,0,0,1-39.62,6.45,115.64,115.64,0,0,1-39.63-6.6,86.31,86.31,0,0,1-52.21-50.2Q1176.55,446.17,1176.55,422.52Zm56.61,0q0,27.93,11.64,41.75t31.14,13.81q19.82,0,31.45-13.81T1319,422.52q0-27.63-11.48-41.45t-31.29-13.81q-19.5,0-31.29,13.66T1233.16,422.52Z"/><path class="cls-2" d="M1455.83,514.62a91.69,91.69,0,0,1-10.86,1.84,118.83,118.83,0,0,1-14.62.92,66.78,66.78,0,0,1-12.74-1.08,22.77,22.77,0,0,1-9.27-3.83,16.55,16.55,0,0,1-5.66-7.68q-1.89-4.91-1.89-12.89V347.3q0-6.45,3.61-10a26.15,26.15,0,0,1,9.91-5.68,120.9,120.9,0,0,1,24.37-5.37,225.65,225.65,0,0,1,27.52-1.69q43.41,0,66.36,18.12t23,49.12a72.49,72.49,0,0,1-4.87,27.17,56.5,56.5,0,0,1-14.47,20.87q-9.6,8.75-24.22,13.51t-33.81,4.76h-22.32Zm16.35-98.55q13.2,0,20.28-6t7.08-18.26q0-11.67-7.39-18t-21.54-6.3c-3.36,0-6.14.06-8.34.16a54,54,0,0,0-6.76.76v47.59Z"/><path class="cls-2" d="M1567.78,422.52q0-24,7.71-42.37a87.57,87.57,0,0,1,21.07-30.85A89.73,89.73,0,0,1,1628,330.42a122.07,122.07,0,0,1,78.31,0,91.52,91.52,0,0,1,31.61,18.88,86.89,86.89,0,0,1,21.23,30.85q7.69,18.42,7.7,42.37T1759.31,465a85.67,85.67,0,0,1-20.91,31,89.77,89.77,0,0,1-31.61,18.88,118.06,118.06,0,0,1-39.62,6.45,115.6,115.6,0,0,1-39.63-6.6,86.31,86.31,0,0,1-52.21-50.2Q1567.79,446.17,1567.78,422.52Zm56.61,0q0,27.93,11.64,41.75t31.14,13.81q19.8,0,31.44-13.81t11.64-41.75q0-27.63-11.48-41.45t-31.29-13.81q-19.5,0-31.29,13.66T1624.39,422.52Z"/><path class="cls-2" d="M1895.49,367.26q-24.23,0-37.11,14.42t-12.9,40.84q0,26.7,14.31,41.13t38.53,14.43q12.89,0,21.85-3.37a150.4,150.4,0,0,0,17.14-7.68,29.54,29.54,0,0,1,11.33,24.25q0,12.6-14.31,21.34t-43.56,8.75a131.7,131.7,0,0,1-39.63-5.83,89,89,0,0,1-32.39-18,84.82,84.82,0,0,1-21.86-30.7q-8-18.57-8-44.36,0-24,7.71-42.22a87.66,87.66,0,0,1,52.36-49.88,112.48,112.48,0,0,1,38.37-6.45q28.93,0,44.82,9.21T1948,356.82a23.46,23.46,0,0,1-4.09,13.81,33.23,33.23,0,0,1-9.44,9.21,104.09,104.09,0,0,0-17.45-8.9A58.07,58.07,0,0,0,1895.49,367.26Z"/><path class="cls-2" d="M2016.88,335.33q5.34-3.07,16.2-5.84a88.27,88.27,0,0,1,21.86-2.76q15.72,0,27.83,4.45t15.57,14q5.65,16,12.26,37.15t13.21,43.75q6.6,22.56,12.9,44.51t11,38.84q-3.77,4.3-11.32,6.9a55,55,0,0,1-17.93,2.61,56.77,56.77,0,0,1-12.73-1.22,22.91,22.91,0,0,1-8.49-3.69,18,18,0,0,1-5.35-6.45,53.92,53.92,0,0,1-3.62-9.21l-5.66-21.18h-56.92q-2.52,9.21-5,19t-5,19a83.58,83.58,0,0,1-9.27,2.61,56.23,56.23,0,0,1-11.8,1.07q-16,0-23.74-5.37a17.15,17.15,0,0,1-7.71-14.89,30.38,30.38,0,0,1,1.26-8.59q1.26-4.31,2.83-10.13,2.2-8.3,6.13-20.57T1982,432.8q4.72-14.28,10.07-29.32t10.06-28.4q4.73-13.35,8.65-23.79T2016.88,335.33Zm37.74,39.6q-4.41,12.9-9.9,28.71t-9.91,32.08h39q-4.41-16.59-9-32.39t-8.33-28.4Z"/><path class="cls-2" d="M2339.87,509.4q-4.41,4.3-12.74,6.6a75.88,75.88,0,0,1-20,2.3,70.71,70.71,0,0,1-22-3.38q-10.38-3.37-17-16.27l-31.13-62q-4.72-9.51-8.49-18t-8.18-19.5l-1.89.31q1.26,16.58,1.42,33.77t.16,33.77v47.59a91.78,91.78,0,0,1-10.54,1.84,109,109,0,0,1-14,.92,73.25,73.25,0,0,1-12.27-.92,19,19,0,0,1-8.81-3.69,17.66,17.66,0,0,1-5.34-7.52,34.17,34.17,0,0,1-1.89-12.43V339.32q4.39-6.13,13.52-9.21a60.91,60.91,0,0,1,19.5-3.07,69.48,69.48,0,0,1,22.18,3.53q10.53,3.53,16.82,16.12l31.45,62q4.72,9.53,8.49,18t8.18,19.5l1.57-.31q-1.26-16.58-1.57-33.16t-.32-33.15V329.8a89.6,89.6,0,0,1,10.54-1.84,109.08,109.08,0,0,1,14-.92q13.83,0,21.07,4.76t7.23,19.8Z"/><path class="cls-4" d="M1059.35,632.68q-3.19-1-6.75-2.39a33.29,33.29,0,0,1-6.48-3.46,19.38,19.38,0,0,1-4.83-4.72,10.56,10.56,0,0,1-1.91-6.22,14,14,0,0,1,1.81-7.16,17.62,17.62,0,0,1,4.67-5.31,20.79,20.79,0,0,1,6.42-3.3,23.68,23.68,0,0,1,7.07-1.11,32.51,32.51,0,0,1,4.83.37,22.77,22.77,0,0,1,4.94,1.33,20,20,0,0,1,4.72,2.65,19.66,19.66,0,0,1,4.2,4.36,3.87,3.87,0,0,1,.64,2.23,3.56,3.56,0,0,1-.91,2.49,3,3,0,0,1-2.39,1,3.32,3.32,0,0,1-3-1.7,11,11,0,0,0-3-3.34,14.21,14.21,0,0,0-3.45-1.86,13.9,13.9,0,0,0-3.51-.8c-1.17-.1-2.21-.16-3.13-.16a20.29,20.29,0,0,0-4.46.53,14.75,14.75,0,0,0-4.3,1.7,9.72,9.72,0,0,0-3.24,3.14,8.88,8.88,0,0,0-1.28,4.93,5.09,5.09,0,0,0,1.86,3.83,18.57,18.57,0,0,0,4.51,3,45.6,45.6,0,0,0,5.53,2.23q2.87,1,4.88,1.7a64.93,64.93,0,0,1,7.33,3.19,23.55,23.55,0,0,1,5.68,4,16.86,16.86,0,0,1,3.72,5.42,18.38,18.38,0,0,1,1.33,7.33,17.87,17.87,0,0,1-1.81,8,20.46,20.46,0,0,1-4.83,6.43,22.84,22.84,0,0,1-7,4.25,22.13,22.13,0,0,1-8.18,1.54,26.07,26.07,0,0,1-6.21-.8,30.16,30.16,0,0,1-6.16-2.23,25.24,25.24,0,0,1-5.31-3.45,14.8,14.8,0,0,1-3.66-4.46,3.13,3.13,0,0,1-.53-1.7,3.52,3.52,0,0,1,3.5-3.4,3.19,3.19,0,0,1,3,1.7,9.59,9.59,0,0,0,2.81,3.35,20.58,20.58,0,0,0,4.09,2.44,22.07,22.07,0,0,0,4.51,1.49,20.78,20.78,0,0,0,4.09.47,15.53,15.53,0,0,0,5.63-1.06,16,16,0,0,0,4.83-2.87,14.14,14.14,0,0,0,3.35-4.3,11.6,11.6,0,0,0,1.27-5.36,10.62,10.62,0,0,0-1.11-5,11.56,11.56,0,0,0-3.14-3.72,23.64,23.64,0,0,0-4.77-2.87A57.17,57.17,0,0,0,1059.35,632.68Z"/><path class="cls-4" d="M1105.44,602.3a3.35,3.35,0,0,1,1-2.39,3.08,3.08,0,0,1,2.33-1h17.32a17.55,17.55,0,0,1,7.11,1.44,18.46,18.46,0,0,1,5.79,3.92,18.9,18.9,0,0,1,3.93,5.79,17.34,17.34,0,0,1,1.43,7,18,18,0,0,1-5.36,12.85,18.87,18.87,0,0,1-5.79,3.88,17.54,17.54,0,0,1-7.11,1.43h-14v28.26a3.15,3.15,0,0,1-1,2.33,3.18,3.18,0,0,1-2.34,1,3.28,3.28,0,0,1-3.29-3.29Zm6.59,3.19v23.15h14a11.36,11.36,0,0,0,4.46-.9,11.83,11.83,0,0,0,6.21-6.16,11.22,11.22,0,0,0,.9-4.52,11.36,11.36,0,0,0-.9-4.46,11.7,11.7,0,0,0-6.21-6.21,11.36,11.36,0,0,0-4.46-.9Z"/><path class="cls-4" d="M1180.53,601.34a4.4,4.4,0,0,1,1.17-1.64,2.73,2.73,0,0,1,1.91-.8,2.83,2.83,0,0,1,1.91.74,5.05,5.05,0,0,1,1.28,1.7L1213,662.2a3,3,0,0,1,.21,1.28,3.24,3.24,0,0,1-.85,2.23,3,3,0,0,1-2.33.95,3.07,3.07,0,0,1-3.08-2l-8.5-19.43h-29.84l-8.5,19.43a3.22,3.22,0,0,1-1.28,1.49,3.26,3.26,0,0,1-1.8.53,3.16,3.16,0,0,1-3.29-3.18,2.76,2.76,0,0,1,.32-1.28Zm3.08,9.88-12.11,27.4h24.11Z"/><path class="cls-4" d="M1309.36,648.71l9-8.17a3.09,3.09,0,0,1,2.12-.75,3,3,0,0,1,2.29,1,3.27,3.27,0,0,1,.9,2.33,3.17,3.17,0,0,1-1.06,2.45l-8.39,7.64,9,8.5a3.14,3.14,0,0,1,1.07,2.44,3.43,3.43,0,0,1-.91,2.39,2.9,2.9,0,0,1-2.28,1,3.5,3.5,0,0,1-2.23-.85l-9.56-9-3.93,3.61a30.4,30.4,0,0,1-6.53,4.51,17.45,17.45,0,0,1-8,1.75,18.83,18.83,0,0,1-7.59-1.54,19.46,19.46,0,0,1-10.41-10.46,19.22,19.22,0,0,1-1.54-7.65,19,19,0,0,1,2.39-9.4,19.57,19.57,0,0,1,6.42-7c-.07,0-.1,0-.1-.11a18.51,18.51,0,0,1-6.11-22,18.34,18.34,0,0,1,9.77-9.77,18.69,18.69,0,0,1,14.34,0,18.34,18.34,0,0,1,9.77,9.77,17.94,17.94,0,0,1,1.44,7.17A17.29,17.29,0,0,1,1308,623a19.39,19.39,0,0,1-3.29,5.52,18.17,18.17,0,0,1-4.94,4.09,16.35,16.35,0,0,1-6.16,2.07Zm-24-12.64a13,13,0,0,0-5.47,4.78,13.1,13.1,0,0,0-1.06,12.11,13.15,13.15,0,0,0,2.81,4.14,13,13,0,0,0,4.14,2.82,12.79,12.79,0,0,0,5.1,1,11.7,11.7,0,0,0,6.43-2,55.52,55.52,0,0,0,7.17-5.74Zm5.52-7.85a11.61,11.61,0,0,0,4.57-.91,11.52,11.52,0,0,0,6.21-6.21,11.77,11.77,0,0,0-2.49-12.85,11.82,11.82,0,0,0-3.72-2.5,11.66,11.66,0,0,0-16.25,10.78,11.74,11.74,0,0,0,.85,4.52,11,11,0,0,0,2.44,3.66,11.6,11.6,0,0,0,3.72,2.5A13.23,13.23,0,0,0,1290.88,628.22Z"/><path class="cls-4" d="M1382.75,602.19a3.28,3.28,0,0,1,3.29-3.29h32.29a3.3,3.3,0,1,1,0,6.59h-29v23.68h19.33a3.18,3.18,0,0,1,2.33,1,3.15,3.15,0,0,1,1,2.33,3.28,3.28,0,0,1-3.29,3.3h-19.33v24.42h29a3.3,3.3,0,1,1,0,6.59H1386a3.28,3.28,0,0,1-3.29-3.29Z"/><path class="cls-4" d="M1468.46,632.68q-3.18-1-6.74-2.39a32.72,32.72,0,0,1-6.48-3.46,19.26,19.26,0,0,1-4.84-4.72,10.56,10.56,0,0,1-1.91-6.22,14,14,0,0,1,1.81-7.16,17.62,17.62,0,0,1,4.67-5.31,20.73,20.73,0,0,1,6.43-3.3,23.57,23.57,0,0,1,7.06-1.11,32.41,32.41,0,0,1,4.83.37,22.77,22.77,0,0,1,4.94,1.33,20.28,20.28,0,0,1,4.73,2.65,19.85,19.85,0,0,1,4.19,4.36,3.87,3.87,0,0,1,.64,2.23,3.6,3.6,0,0,1-.9,2.49,3,3,0,0,1-2.39,1,3.32,3.32,0,0,1-3-1.7,11,11,0,0,0-3-3.34,13.95,13.95,0,0,0-7-2.66c-1.17-.1-2.21-.16-3.13-.16a20.29,20.29,0,0,0-4.46.53,14.86,14.86,0,0,0-4.3,1.7,9.81,9.81,0,0,0-3.24,3.14,8.88,8.88,0,0,0-1.28,4.93,5.09,5.09,0,0,0,1.86,3.83,18.64,18.64,0,0,0,4.52,3,45.46,45.46,0,0,0,5.52,2.23q2.87,1,4.88,1.7a64.93,64.93,0,0,1,7.33,3.19,23.36,23.36,0,0,1,5.68,4,16.7,16.7,0,0,1,3.72,5.42,18.38,18.38,0,0,1,1.33,7.33,17.87,17.87,0,0,1-1.81,8,20.46,20.46,0,0,1-4.83,6.43,22.91,22.91,0,0,1-7,4.25,22.21,22.21,0,0,1-8.18,1.54,26.09,26.09,0,0,1-6.22-.8,30.16,30.16,0,0,1-6.16-2.23,25.77,25.77,0,0,1-5.31-3.45,14.8,14.8,0,0,1-3.66-4.46,3.13,3.13,0,0,1-.53-1.7,3.54,3.54,0,0,1,3.5-3.4,3.19,3.19,0,0,1,3,1.7,9.59,9.59,0,0,0,2.81,3.35,20.58,20.58,0,0,0,4.09,2.44,22.07,22.07,0,0,0,4.51,1.49,20.86,20.86,0,0,0,4.09.47,15.53,15.53,0,0,0,5.63-1.06,16,16,0,0,0,4.83-2.87,14,14,0,0,0,3.35-4.3,11.6,11.6,0,0,0,1.27-5.36,10.62,10.62,0,0,0-1.11-5,11.53,11.53,0,0,0-3.13-3.72,24,24,0,0,0-4.78-2.87A57.17,57.17,0,0,0,1468.46,632.68Z"/><path class="cls-4" d="M1511.16,605.49a3.28,3.28,0,0,1-3.3-3.3,3.15,3.15,0,0,1,1-2.33,3.18,3.18,0,0,1,2.34-1H1548a3.3,3.3,0,1,1,0,6.59h-15.08v58a3.28,3.28,0,0,1-3.29,3.29,3.18,3.18,0,0,1-2.34-1,3.15,3.15,0,0,1-1-2.33v-58Z"/><path class="cls-4" d="M1575,602.19a3.26,3.26,0,0,1,3.29-3.29h32.29a3.3,3.3,0,1,1,0,6.59h-29v23.68h19.33a3.18,3.18,0,0,1,2.34,1,3.15,3.15,0,0,1,1,2.33,3.28,3.28,0,0,1-3.3,3.3h-19.33v24.42h29a3.3,3.3,0,1,1,0,6.59h-32.29a3.26,3.26,0,0,1-3.29-3.29Zm27.29-27.93a2.91,2.91,0,0,1,2.77-1.59,3,3,0,0,1,2.39,1.06,3.55,3.55,0,0,1,.9,2.34,3.29,3.29,0,0,1-.32,1.48l-8.82,15.19A3,3,0,0,1,1598,594a3.21,3.21,0,0,1-1.6.42,2.87,2.87,0,0,1-2.39-1.17,3.81,3.81,0,0,1-.9-2.33,3.12,3.12,0,0,1,.32-1.39Z"/><path class="cls-4" d="M1640.94,605.49a3.15,3.15,0,0,1-2.33-1,3.18,3.18,0,0,1-1-2.34,3.28,3.28,0,0,1,3.29-3.29h36.86a3.28,3.28,0,0,1,3.29,3.29,3.18,3.18,0,0,1-1,2.34,3.15,3.15,0,0,1-2.33,1h-15.08v58a3.15,3.15,0,0,1-1,2.33,3.18,3.18,0,0,1-2.34,1,3.28,3.28,0,0,1-3.29-3.29v-58Z"/><path class="cls-4" d="M1706.05,602.19a3.28,3.28,0,0,1,3.29-3.29,3.18,3.18,0,0,1,2.34,1,3.14,3.14,0,0,1,1,2.33v61.29a3.14,3.14,0,0,1-1,2.33,3.18,3.18,0,0,1-2.34,1,3.28,3.28,0,0,1-3.29-3.29Z"/><path class="cls-4" d="M1790.27,614.3a46.78,46.78,0,0,0-8.92-5.95,23.35,23.35,0,0,0-10.94-2.65,27,27,0,0,0-19.28,8,27.78,27.78,0,0,0-5.78,8.71,27.57,27.57,0,0,0,0,21.25,26.7,26.7,0,0,0,14.44,14.44,26.78,26.78,0,0,0,10.62,2.12,27.09,27.09,0,0,0,11.1-2.28,26.57,26.57,0,0,0,8.87-6.32,3.28,3.28,0,0,1,1.33-1,4.24,4.24,0,0,1,1.64-.32,2.4,2.4,0,0,1,2.07,1,3.92,3.92,0,0,1-.26,4.78,32.72,32.72,0,0,1-11.05,7.91,33.46,33.46,0,0,1-13.7,2.82,32.94,32.94,0,0,1-13.17-2.66,33.7,33.7,0,0,1-18-18,34.05,34.05,0,0,1,0-26.34,34.88,34.88,0,0,1,7.22-10.78,33.66,33.66,0,0,1,10.73-7.27,32.94,32.94,0,0,1,13.17-2.66,32.32,32.32,0,0,1,13.33,2.77,34.91,34.91,0,0,1,10.89,7.54,5.14,5.14,0,0,1,.95,1.38,3.66,3.66,0,0,1,.43,1.7,2.51,2.51,0,0,1-1,2.12,3.48,3.48,0,0,1-2.23.74A3.26,3.26,0,0,1,1790.27,614.3Z"/><path class="cls-4" d="M1837.86,601.34a4.48,4.48,0,0,1,1.16-1.64,2.76,2.76,0,0,1,1.92-.8,2.87,2.87,0,0,1,1.91.74,5,5,0,0,1,1.27,1.7l26.24,60.86a3,3,0,0,1,.21,1.28,3.29,3.29,0,0,1-.85,2.23,3,3,0,0,1-2.34.95,3.07,3.07,0,0,1-3.08-2l-8.5-19.43H1826l-8.5,19.43a3.2,3.2,0,0,1-1.27,1.49,3.31,3.31,0,0,1-1.81.53,3.16,3.16,0,0,1-3.29-3.18,2.88,2.88,0,0,1,.32-1.28Zm3.08,9.88-12.11,27.4h24.11Z"/><path class="cls-4" d="M1982.4,614.3a46.78,46.78,0,0,0-8.92-5.95,23.32,23.32,0,0,0-10.94-2.65,27,27,0,0,0-19.27,8,27.64,27.64,0,0,0-5.79,8.71,27.38,27.38,0,0,0,5.79,29.9,27.15,27.15,0,0,0,8.65,5.79,26.78,26.78,0,0,0,10.62,2.12,27.09,27.09,0,0,0,11.1-2.28,26.47,26.47,0,0,0,8.87-6.32,3.28,3.28,0,0,1,1.33-1,4.24,4.24,0,0,1,1.64-.32,2.4,2.4,0,0,1,2.07,1,3.88,3.88,0,0,1-.26,4.78,32.72,32.72,0,0,1-11,7.91,33.43,33.43,0,0,1-13.7,2.82,32.94,32.94,0,0,1-13.17-2.66,33.78,33.78,0,0,1-17.95-18,34.05,34.05,0,0,1,0-26.34,34.73,34.73,0,0,1,7.23-10.78,33.62,33.62,0,0,1,10.72-7.27,32.94,32.94,0,0,1,13.17-2.66,32.28,32.28,0,0,1,13.33,2.77,34.91,34.91,0,0,1,10.89,7.54,5.14,5.14,0,0,1,1,1.38,3.66,3.66,0,0,1,.43,1.7,2.51,2.51,0,0,1-1,2.12,3.48,3.48,0,0,1-2.23.74A3.26,3.26,0,0,1,1982.4,614.3Z"/><path class="cls-4" d="M2030,601.34a4.48,4.48,0,0,1,1.16-1.64,2.76,2.76,0,0,1,1.92-.8,2.87,2.87,0,0,1,1.91.74,5,5,0,0,1,1.27,1.7l26.24,60.86a3,3,0,0,1,.21,1.28,3.24,3.24,0,0,1-.85,2.23,3,3,0,0,1-2.34.95,3.08,3.08,0,0,1-3.08-2l-8.49-19.43h-29.85l-8.5,19.43a3.2,3.2,0,0,1-1.27,1.49,3.31,3.31,0,0,1-1.81.53,3.16,3.16,0,0,1-3.29-3.18,2.88,2.88,0,0,1,.32-1.28Zm3.08,9.88L2021,638.62h24.11Z"/><path class="cls-4" d="M2088.51,602.19a3.26,3.26,0,0,1,3.29-3.29,2.71,2.71,0,0,1,1.75.48,7.37,7.37,0,0,1,1.22,1.33l36.54,51.72V602.19a3.28,3.28,0,0,1,3.29-3.29,3.18,3.18,0,0,1,2.34,1,3.14,3.14,0,0,1,.95,2.33v61.29a3.14,3.14,0,0,1-.95,2.33,3.18,3.18,0,0,1-2.34,1,2.68,2.68,0,0,1-1.91-.69,7.19,7.19,0,0,1-1.27-1.54l-36.33-51.41v50.35a3.29,3.29,0,1,1-6.58,0Z"/><path class="cls-4" d="M2165.19,602.19a3.3,3.3,0,0,1,5.63-2.33,3.14,3.14,0,0,1,.95,2.33v61.29a3.14,3.14,0,0,1-.95,2.33,3.29,3.29,0,0,1-5.63-2.33Z"/><path class="cls-4" d="M2199.18,602.19a3.14,3.14,0,0,1,1-2.33,3.18,3.18,0,0,1,2.34-1,2.71,2.71,0,0,1,1.75.48,7.37,7.37,0,0,1,1.22,1.33L2242,652.43V602.19a3.29,3.29,0,1,1,6.58,0v61.29a3.26,3.26,0,0,1-3.29,3.29,2.68,2.68,0,0,1-1.91-.69,7.54,7.54,0,0,1-1.28-1.54l-36.32-51.41v50.35a3.28,3.28,0,0,1-3.29,3.29,3.18,3.18,0,0,1-2.34-1,3.14,3.14,0,0,1-1-2.33Z"/><path class="cls-4" d="M2301,601.34a4.4,4.4,0,0,1,1.17-1.64,2.72,2.72,0,0,1,1.91-.8,2.85,2.85,0,0,1,1.91.74,4.9,4.9,0,0,1,1.27,1.7l26.24,60.86a3,3,0,0,1,.21,1.28,3.24,3.24,0,0,1-.85,2.23,3,3,0,0,1-2.34.95,3.08,3.08,0,0,1-3.08-2L2319,645.21h-29.85l-8.49,19.43a3.39,3.39,0,0,1-3.08,2,3.18,3.18,0,0,1-3.3-3.18,2.88,2.88,0,0,1,.32-1.28Zm3.08,9.88L2292,638.62h24.11Z"/><rect class="cls-5" width="2603.09" height="962.21"/></g></g></svg>