<svg xmlns="http://www.w3.org/2000/svg" viewBox="0 0 804.45 804.45"><defs><style>.cls-1{fill:#bddcde;stroke:#fff;stroke-miterlimit:10;stroke-width:27.68px;}.cls-2{fill:#34424f;}.cls-3{fill:#e0e5d2;}</style></defs><g id="Capa_2" data-name="Capa 2"><g id="Capa_1-2" data-name="Capa 1"><circle class="cls-1" cx="402.22" cy="402.22" r="388.38"/><path class="cls-2" d="M139.86,450.73a18,18,0,0,0-14.26-20.38,17.86,17.86,0,0,0-18.59,8,17.85,17.85,0,0,0-2.2,14A17.86,17.86,0,0,0,120,465.75a18,18,0,0,0,19.82-15Zm7,1.09a24.56,24.56,0,0,1-3.32,8.88,23.59,23.59,0,0,1-24.37,10.7,23.65,23.65,0,0,1,7.34-46.7,23.58,23.58,0,0,1,19.91,17.66A24.31,24.31,0,0,1,146.84,451.82Z"/><path class="cls-2" d="M520.3,259.64a25.38,25.38,0,0,0-20.16-28.82,25.26,25.26,0,0,0-26.29,11.36A25.29,25.29,0,0,0,470.73,262a25.28,25.28,0,0,0,21.55,18.88,25.36,25.36,0,0,0,28-21.24Zm9.87,1.55a34.34,34.34,0,0,1-4.69,12.55A33.33,33.33,0,0,1,491,288.88a33.44,33.44,0,0,1-14.09-59.49,33.84,33.84,0,0,1,11.52-5.69,33.51,33.51,0,0,1,35.34,12.07,33.93,33.93,0,0,1,5.77,12A34.51,34.51,0,0,1,530.17,261.19Z"/><path class="cls-2" d="M708.21,425.4a25.36,25.36,0,0,0-20.15-28.81A25.22,25.22,0,0,0,661.76,408a25.37,25.37,0,0,0-3.12,19.81,25.28,25.28,0,0,0,21.55,18.88,25.36,25.36,0,0,0,28-21.24Zm9.88,1.55a34.71,34.71,0,0,1-4.69,12.55,33.36,33.36,0,0,1-34.46,15.14,33.43,33.43,0,0,1-14.09-59.49,33.38,33.38,0,0,1,52.62,18.41A34.72,34.72,0,0,1,718.09,427Z"/><path class="cls-2" d="M613.69,378.48q3,3.47,5.66,7.22a59.08,59.08,0,0,1,8.93,17.74A47.54,47.54,0,0,1,629.52,424,49.64,49.64,0,0,1,622,443.58a53,53,0,0,1-14.64,14.94,54.35,54.35,0,0,1-9.25,4.91,58.2,58.2,0,0,1-9.87,3c-1.11.23-2.22.4-3.32.57-.48,1.31-1,2.61-1.53,3.87A138.26,138.26,0,0,1,567.89,499a145.58,145.58,0,0,1-20.59,23.13c-15,13.69-32.07,23.88-49.71,31.51a237.88,237.88,0,0,1-54.65,15.93,245.13,245.13,0,0,1-56.36,2.88,230.21,230.21,0,0,1-55.84-10.42c-18.22-6-36-14.4-52.11-26.34a152.61,152.61,0,0,1-22.57-20.39,136.13,136.13,0,0,1-9.79-12.18l-1.16-1.61L244,499.9l-2.17-3.31c-1.35-2.29-2.78-4.52-4-6.87a139.55,139.55,0,0,1-10.09-23.14c.05-.68.07-1.36.1-2h-.72c-1.95-.07-3.89-.22-5.83-.47-1-.13-1.94-.27-2.92-.45l-1.48-.29-.76-.16-.57-.15a3.55,3.55,0,0,1-.47-.09l-.73-.14-1.39-.33c-.89-.25-1.78-.5-2.65-.79a53.39,53.39,0,0,1-5.1-2,47.7,47.7,0,0,1-9.37-5.66,42.37,42.37,0,0,1-7.84-7.82,43.32,43.32,0,0,1-5.53-9.56,46.09,46.09,0,0,1-2.94-10.42,56.05,56.05,0,0,1-.78-10.53,47.76,47.76,0,0,1,.29-5.31c.2-1.74.45-3.45.77-5.15l.42-2-.57-.16-1.42-.49a28.65,28.65,0,0,1-5.47-2.72,7.92,7.92,0,0,1-1.23-.86l-1.15-.91a31.46,31.46,0,0,1-4.28-4.05c-.67-.72-1.21-1.56-1.81-2.35l-.87-1.19c-.27-.42-.49-.86-.73-1.29a33.35,33.35,0,0,1-4-10.87l-.46-2.81c-.09-.94-.13-1.87-.2-2.82,0-.46-.05-.94-.06-1.4l0-1.4c0-.92,0-1.86.12-2.78a51.34,51.34,0,0,1,2.15-10.75c.27-.87.62-1.71.92-2.56a24.58,24.58,0,0,1,1-2.54l1.14-2.48,1.34-2.39a24.83,24.83,0,0,1,1.46-2.35c.52-.75,1-1.54,1.58-2.27a41.07,41.07,0,0,1,3.66-4.24,40.1,40.1,0,0,1,19.36-11.16,34.14,34.14,0,0,1,5.82-.82,32.13,32.13,0,0,1,5.84.24,48.4,48.4,0,0,1,10.63,2.68c6.62,2.47,12.27,5.65,17.73,7.77.67.26,1.35.53,2,.75s1.34.46,2,.64,1.33.39,2,.51l1,.22.23.06h.11l.21,0a1.77,1.77,0,0,0,1.25-.26,5.57,5.57,0,0,0,1.72-1.66,16.72,16.72,0,0,0,1.24-2.09,71.18,71.18,0,0,0,3.35-11.34c.11-.66.21-1.41.28-1.93V321a5.2,5.2,0,0,1,.5-1.68c.78-3.85,1.54-7.85,2.55-11.92.68-2.72,1.48-5.15,2.22-7.69l1.14-3.77c.4-1.28.84-2.61,1.36-4a30.17,30.17,0,0,1,4.54-8.28,19,19,0,0,1,4-3.71,17.38,17.38,0,0,1,5.06-2.36,25.62,25.62,0,0,1,9.71-.64c1.49.14,2.84.4,4.24.66l2.07.37,2,.5c10.89,2.7,20.71,8,29.4,14.19a228.21,228.21,0,0,1,20.57,16.82l6.45-3.67q4.27-2.42,8.68-4.76a195.93,195.93,0,0,1,18.2-8.61c12.58-5.06,26.27-8.57,40.47-8.21a75.79,75.79,0,0,1,10.59,1c1.76.26,3.52.73,5.26,1.12s3.45.92,5.1,1.51A84.42,84.42,0,0,1,449.26,297a78.62,78.62,0,0,1,16,13.69,61.73,61.73,0,0,1,9.16,13.57c8.61-2.49,17.36-4.52,26.21-6.16a104.66,104.66,0,0,1,33.07-.78,93.8,93.8,0,0,1,29,8.87,56.3,56.3,0,0,1,12.81-3.34c.85-.11,1.7-.25,2.56-.33l2.61-.14a45.86,45.86,0,0,1,5.24,0,24,24,0,0,1,2.65.25l2.65.34c.88.17,1.76.39,2.63.59a26,26,0,0,1,2.63.68l2.6.9c.42.15.86.29,1.28.48l1.26.57,2.5,1.2c.81.44,1.59,1,2.38,1.46a39.39,39.39,0,0,1,8.44,7.27,22,22,0,0,1,1.7,2.18l1.6,2.25,1.29,2.39.62,1.21.31.6.14.3.2.43a21.29,21.29,0,0,1,1,3c.25.93.41,1.83.56,2.73a34.9,34.9,0,0,1,.47,5.43,31.81,31.81,0,0,1-.47,5.67,12.66,12.66,0,0,1-.31,1.46,12.29,12.29,0,0,1-.41,1.49,12.58,12.58,0,0,1-.5,1.4c-.16.45-.34.87-.53,1.3A40.56,40.56,0,0,1,615,377C614.58,377.48,614.14,378,613.69,378.48Zm-.14,42.58A47.58,47.58,0,0,0,610,391.35a35.49,35.49,0,0,0-4.35-6.82l-.62-.81s-.44-.5-.71-.9a8.49,8.49,0,0,1-.71-1.33,8,8,0,0,1-.11-5.93,7.73,7.73,0,0,1,1.62-2.58c.2-.22.4-.44.59-.67.37-.48.76-1,1.11-1.48a19.44,19.44,0,0,0,2.94-6.6,9.5,9.5,0,0,0,.22-3,19.39,19.39,0,0,0-.52-3.19,29.53,29.53,0,0,0-1-3.31c-.22-.53-.44-1.06-.67-1.54a6,6,0,0,0-.6-1.1l0-.05-.13-.18-.26-.35-.51-.71-1-1.43c-.78-.83-1.44-1.73-2.2-2.54a25.76,25.76,0,0,0-11.32-6.61,37.3,37.3,0,0,0-14.18-.91A55.36,55.36,0,0,0,563,343.14l-.17.06A7.76,7.76,0,0,1,555,342l-.1-.06c-7.63-3.93-15.34-7.15-23.82-8.76A95.84,95.84,0,0,0,517,331.5a106.61,106.61,0,0,0-14.37.47c-10,1-20,2.51-29.93,4.4l-4.57.87-1.91-4.17a51.69,51.69,0,0,0-9.64-14.5,66.43,66.43,0,0,0-13.83-11.19,72.8,72.8,0,0,0-16.25-7.52c-1.4-.51-2.84-.81-4.26-1.22s-2.81-.66-4.28-.84a61.08,61.08,0,0,0-8.79-.76A82.59,82.59,0,0,0,391.31,299a108.48,108.48,0,0,0-17.52,5.54c-5.76,2.33-11.42,5-17.05,8-2.81,1.48-5.61,3-8.43,4.57l-2.66,1.51c.77.81,1.54,1.67,2.28,2.61a23.48,23.48,0,0,1,2,3,10.29,10.29,0,0,1,.47.94,8.78,8.78,0,0,1,.43,1.05q.2.58.36,1.2a7.39,7.39,0,0,1,.19,1,17.39,17.39,0,0,1,.24,3.93,15.41,15.41,0,0,1-.93,4.19,14.32,14.32,0,0,1-2.23,3.76,16.8,16.8,0,0,1-3,2.74,21.72,21.72,0,0,1-6.52,3,37.57,37.57,0,0,1-12.79,1.21,30.49,30.49,0,0,1-6.57-1.16,15.57,15.57,0,0,1-6.86-4,9.52,9.52,0,0,1-2.54-4.89,9.15,9.15,0,0,1-.15-1.46c0-.45,0-.92.07-1.38a10.87,10.87,0,0,1,.25-1.24l.14-.61.19-.53a21.13,21.13,0,0,1,3.95-6.43,59.82,59.82,0,0,1,9.13-8.46c.9-.71,1.82-1.37,2.76-2a202.11,202.11,0,0,0-17.41-13.77c-8.12-5.64-16.83-10.13-26-12.27l-1.71-.41-1.73-.27c-1.15-.2-2.33-.41-3.4-.49a15.19,15.19,0,0,0-5.61.36,6.63,6.63,0,0,0-1.89.91,7.87,7.87,0,0,0-1.6,1.57,19.41,19.41,0,0,0-2.7,5.28c-.39,1.07-.76,2.19-1.11,3.37l-1,3.63c-.68,2.42-1.43,4.9-2,7.19-1.11,4.73-1.9,9.75-2.95,15-1.11,5.58-2.3,11.43-5.41,15.9-.41.72-.85,1.44-1.34,2.17a17.48,17.48,0,0,1-5.17,5,14,14,0,0,1-3.83,1.58,18.9,18.9,0,0,1-2.09.33,15.43,15.43,0,0,1-2,0l-1-.1-.48-.06-.36-.07-1.37-.28c-.92-.16-1.79-.4-2.68-.64s-1.74-.5-2.58-.79-1.68-.56-2.5-.87c-6.53-2.49-12.14-5.61-17.59-7.55a35.08,35.08,0,0,0-8-2,18.52,18.52,0,0,0-3.76-.14,20.54,20.54,0,0,0-3.7.55A29.06,29.06,0,0,0,180,346a35.92,35.92,0,0,0-8.27,14,39.84,39.84,0,0,0-1.65,8.08c-.06.68,0,1.35-.08,2l0,1c0,.33.05.66.06,1,0,.67.06,1.33.12,2l.32,1.92a21.47,21.47,0,0,0,2.58,7.1c.16.26.29.55.45.81l.56.74c.37.48.68,1,1.1,1.47a19.89,19.89,0,0,0,2.71,2.55,18.2,18.2,0,0,0,1.45,1.12,14.37,14.37,0,0,0,1.48.87,11.51,11.51,0,0,0,1.63.73l.84.33.51.15a42.1,42.1,0,0,1,3.39-6.46,22.75,22.75,0,0,1,8.83-8.23,17.17,17.17,0,0,1,3.17-1.17c.55-.14,1.12-.22,1.67-.33a13,13,0,0,1,1.88-.14,12.53,12.53,0,0,1,7.3,2.2,12,12,0,0,1,2.93,2.93,10.78,10.78,0,0,1,0,12.36l-.31.44-.24.3-.49.59-1,1.16c-.69.73-1.45,1.4-2.2,2.09s-1.58,1.22-2.41,1.78-1.7,1.05-2.57,1.48a32.57,32.57,0,0,1-11.09,3.28c-.8.09-1.61.14-2.42.16-.18.87-.34,1.74-.5,2.6-.23,1.47-.42,2.94-.53,4.38a38.39,38.39,0,0,0-.08,4.3,46.25,46.25,0,0,0,.92,8.63,35.56,35.56,0,0,0,2.54,8,31,31,0,0,0,10.26,12.45,37,37,0,0,0,7.22,4c1.28.52,2.59,1,3.91,1.37.66.2,1.33.36,2,.52l.95.21.46.08.31.05.73.15.93.18,1.1.18c.77.12,1.54.21,2.32.3,1.55.17,3.13.25,4.7.27a51.85,51.85,0,0,0,9.34-.72,41.19,41.19,0,0,0,8.81-2.51,37.49,37.49,0,0,0,7.93-4.29,39,39,0,0,0,6.77-6c.53-.55,1-1.18,1.5-1.75.23-.29.52-.6.71-.88l.59-.8a19.76,19.76,0,0,0,1.93-3.49,21.32,21.32,0,0,0,.28-16v0l-.2-.57a5.4,5.4,0,0,1,2.11-6.24,30.13,30.13,0,0,0,10.53-12.25,29.12,29.12,0,0,0,2.54-16c-.11-.67-.2-1.34-.32-2s-.3-1.42-.49-2.12c-.34-1.41-.8-2.78-1.26-4.15a48.45,48.45,0,0,0-3.76-7.91,61.34,61.34,0,0,0-11.39-13.77l0,0a4.43,4.43,0,0,1,5.9-6.61,70,70,0,0,1,13.55,15.5,56.67,56.67,0,0,1,4.78,9.38c.62,1.65,1.22,3.31,1.7,5,.25.86.45,1.72.66,2.58s.35,1.81.52,2.7a39.47,39.47,0,0,1-2.8,21.72A40.76,40.76,0,0,1,277,415a31.65,31.65,0,0,1-.5,21.18,32.41,32.41,0,0,1-3,5.84l-.93,1.35c-.31.45-.61.8-.92,1.21-.61.77-1.2,1.57-1.88,2.3a50.22,50.22,0,0,1-8.88,8.09,51.69,51.69,0,0,1-20.47,8.55A122.12,122.12,0,0,0,249,481.87c1.12,2.08,2.44,4,3.66,6l2,2.89,1,1.44,1.06,1.39a117.1,117.1,0,0,0,8.87,10.64,139.52,139.52,0,0,0,20.69,18,165.87,165.87,0,0,0,48.38,23.38,216.31,216.31,0,0,0,52.55,8.84,237.18,237.18,0,0,0,53-3.61,223.65,223.65,0,0,0,50.94-15.43,181.36,181.36,0,0,0,23.57-12.6A152.45,152.45,0,0,0,536,506.61a122.23,122.23,0,0,0,29-39.7l-1.85-.29c-1.61-.37-3.24-.65-4.83-1.1a64.37,64.37,0,0,1-9.46-3.23c-.77-.32-1.52-.72-2.27-1.07s-1.52-.75-2.24-1.18l-2.19-1.25-2.12-1.4a43.38,43.38,0,0,1-7.82-6.75,19.34,19.34,0,0,1-1.72-2c-.54-.71-1.1-1.39-1.6-2.13a33.68,33.68,0,0,1-2.67-4.68,16.12,16.12,0,0,1-1-2.5c-.29-.86-.61-1.72-.85-2.59a33.73,33.73,0,0,1-.93-10.74c.05-.89.24-1.74.37-2.6s.25-1.7.5-2.66a23,23,0,0,1,2.09-5.27,2,2,0,0,0,.11-.2c-1.15-.76-2.38-1.57-3.67-2.51a31.39,31.39,0,0,1-4.14-3.5,24.77,24.77,0,0,1-1.86-2.14c-.55-.71-1.08-1.43-1.56-2.17a33.25,33.25,0,0,1-4.44-9.71,31.08,31.08,0,0,1-1-5.24,50.76,50.76,0,0,1-.33-5.08,52.32,52.32,0,0,1,3.8-19.8,48.37,48.37,0,0,1,11.45-16.88,5,5,0,0,1,6.9,7.2l-.23.19,0,0a36.42,36.42,0,0,0-9.48,13.06,40.52,40.52,0,0,0-3.18,16.11,37.64,37.64,0,0,0,.27,4.11,22,22,0,0,0,.74,3.8,24,24,0,0,0,3.3,6.92c.36.53.76,1,1.17,1.54s.77.87,1.19,1.29a24.61,24.61,0,0,0,3,2.35c2.22,1.53,5.09,3.07,7.94,5.3a4.91,4.91,0,0,1,1.14,6.43l-.12.18a36.3,36.3,0,0,0-1.94,3.4,12.36,12.36,0,0,0-1,3,15.91,15.91,0,0,0-.2,1.73c0,.6-.17,1.19-.16,1.79a20.13,20.13,0,0,0,.25,3.49,17.77,17.77,0,0,0,.8,3.33c.2.53.47,1,.68,1.57a8.82,8.82,0,0,0,.8,1.52,21.84,21.84,0,0,0,2,2.88c.36.45.79.89,1.19,1.33a11,11,0,0,0,1.29,1.26,37.52,37.52,0,0,0,13,7.41,53,53,0,0,0,15.28,2.76,51,51,0,0,0,15.17-1.73,46.25,46.25,0,0,0,13.28-6.12c.5-.35.95-.74,1.44-1.09s1-.68,1.4-1.1a32,32,0,0,0,2.63-2.44l1.24-1.29c.41-.44.76-.95,1.15-1.43a26.65,26.65,0,0,0,2.2-2.9A38.58,38.58,0,0,0,613.55,421.06ZM341.82,331.71a7.71,7.71,0,0,0-.15-1.65c0-.12,0-.37-.08-.39a.69.69,0,0,1,0-.13s-.08-.18-.11-.26a2.31,2.31,0,0,0-.16-.31,12.13,12.13,0,0,0-1.13-1.62,35.14,35.14,0,0,0-3.63-3.75l-1.53.8c-1.57.82-3.1,1.7-4.63,2.54a48.7,48.7,0,0,0-8.33,5.57,9.53,9.53,0,0,0-2.34,2.75,2.31,2.31,0,0,0-.12.27,6.24,6.24,0,0,0,2.76,1.43,21.33,21.33,0,0,0,4.46.72,28.41,28.41,0,0,0,9.43-1,12.42,12.42,0,0,0,3.62-1.67,6.31,6.31,0,0,0,1.12-1,4.16,4.16,0,0,0,.61-1A6.22,6.22,0,0,0,341.82,331.71Zm-137,55.6a.88.88,0,0,0,.31-.74,1.29,1.29,0,0,0-.57-.91,3.15,3.15,0,0,0-1.77-.52,2.32,2.32,0,0,0-.52,0c-.24.06-.47.08-.69.14a7.88,7.88,0,0,0-1.34.52,13.46,13.46,0,0,0-4.92,4.89c-.4.63-.77,1.3-1.14,2a20,20,0,0,0,5-1.35c.59-.23,1.1-.55,1.66-.8s1-.66,1.54-1,.92-.74,1.38-1.13Z"/><path class="cls-2" d="M489.56,432.54a2.77,2.77,0,0,1-2.6,2.79h-.07a2.77,2.77,0,0,1-.61,3.09l.52.07a2.77,2.77,0,0,1-.57,5.5l-1.37-.1a2.72,2.72,0,0,1-1.17.32c-6.72.3-13.6.61-20.48.34-3.19-.12-6.38-.36-9.56-.79a2.77,2.77,0,0,1,.21-5.51c0-.11.06-.21.1-.31a2.75,2.75,0,0,1-1.29-2.8,3.25,3.25,0,0,1,.17-.63l-.54-.05a3.76,3.76,0,0,1-2.88-6.82,2.79,2.79,0,0,1-.47-1.31,2.75,2.75,0,0,1,2.49-3q13.47-1.27,26.94-2.58a2.81,2.81,0,0,1,2.78,1.58,4.72,4.72,0,0,1,1.06,0,2.81,2.81,0,0,1,2.09,1.64,3,3,0,0,1,.23,1.05l3.1,2.62a2.78,2.78,0,0,1,.91,2.77A2.75,2.75,0,0,1,489.56,432.54Z"/><path class="cls-2" d="M466.09,465a3.05,3.05,0,0,1-2.73,3.16,146.77,146.77,0,0,1-18.23.86,74.21,74.21,0,0,1-18.58-2.64,51.9,51.9,0,0,1-17.33-8.63,42.92,42.92,0,0,1-7.18-7,43.47,43.47,0,0,1-4.57,7.1,41.07,41.07,0,0,1-14.67,11.41,54.07,54.07,0,0,1-17.33,4.78,85.93,85.93,0,0,1-17.49,0,2.64,2.64,0,0,1,.29-5.27h0a81.1,81.1,0,0,0,16.25-1.11,47,47,0,0,0,14.81-5.16,33.12,33.12,0,0,0,11.17-9.9,44.82,44.82,0,0,0,5.82-13.21c0-.11,0-.23,0-.35l-2,.06a2.76,2.76,0,1,1-.19-5.52l12.42-.44c1.74-.08,3.46-.15,5.19-.19a2.82,2.82,0,0,1,2.77,2.12,2.78,2.78,0,0,1-1.43,5.21h-.08l-6.31-.43a30.88,30.88,0,0,0,8.2,10.77,43.08,43.08,0,0,0,14,8A67.06,67.06,0,0,0,445.49,462a140.56,140.56,0,0,0,17.43.15A3,3,0,0,1,466.09,465Z"/><path class="cls-3" d="M259,428.9l.11-.07h0Zm193.63,6.24a2.75,2.75,0,0,0,1.29,2.8c0,.1-.06.2-.1.31a2.77,2.77,0,0,0-.21,5.51c3.18.43,6.37.67,9.56.79,6.88.27,13.76,0,20.48-.34a2.72,2.72,0,0,0,1.17-.32l1.37.1a2.77,2.77,0,0,0,.57-5.5l-.52-.07a2.77,2.77,0,0,0,.61-3.09H487a6.52,6.52,0,0,0,.68-7.67l-3.1-2.62a3,3,0,0,0-.23-1.05,2.81,2.81,0,0,0-2.09-1.64,4.72,4.72,0,0,0-1.06,0,2.81,2.81,0,0,0-2.78-1.58q-13.47,1.29-26.94,2.58a2.75,2.75,0,0,0-2.49,3,2.85,2.85,0,0,1-1.23,4.2,16.9,16.9,0,0,0,4.58,3.93l.54.05A3.25,3.25,0,0,0,452.67,435.14ZM326.93,436a2.78,2.78,0,0,0,1.44,2.46v0l-.88.08a133.16,133.16,0,0,1-1.73,6.94,2.77,2.77,0,0,0,2.65,2.51h.37l31.15-2.93a2.78,2.78,0,0,0,2.51-2.85,2.83,2.83,0,0,0-.36-1.29,2.07,2.07,0,0,0,0-.35,2.77,2.77,0,0,0-.85-2.13,3,3,0,0,0,.24-1.16,34.09,34.09,0,0,1-4.26-5.24,3.05,3.05,0,0,0,0-.52,2.81,2.81,0,0,0-1.31-2.21,2.7,2.7,0,0,0,.08-.57c.5-.08,1-.18,1.51-.29a2.77,2.77,0,0,0-.4-5.46l-2.53-.19a2.75,2.75,0,0,0-2.13-1.15h-.06c-7.7-.16-15.5-.1-23.17.19a2.8,2.8,0,0,0-2.56,2,2.6,2.6,0,0,0-.13.24,2.76,2.76,0,0,0-.27,4.3,2.84,2.84,0,0,0-.59,1.64,2.77,2.77,0,0,0,1,2.17,2.72,2.72,0,0,0-.17.81,2.78,2.78,0,0,0,.63,2A2.69,2.69,0,0,0,326.93,436ZM614.24,406.4a44.22,44.22,0,0,1-.69,14.66,38.58,38.58,0,0,1-5.79,13.06,26.65,26.65,0,0,1-2.2,2.9c-.39.48-.74,1-1.15,1.43l-1.24,1.29a32,32,0,0,1-2.63,2.44c-.42.42-.95.72-1.4,1.1s-.94.74-1.44,1.09a46.25,46.25,0,0,1-13.28,6.12,51,51,0,0,1-15.17,1.73A53,53,0,0,1,554,449.46a37.52,37.52,0,0,1-13-7.41,11,11,0,0,1-1.29-1.26c-.4-.44-.83-.88-1.19-1.33a21.84,21.84,0,0,1-2-2.88,8.82,8.82,0,0,1-.8-1.52c-.21-.53-.48-1-.68-1.57a17.77,17.77,0,0,1-.8-3.33,20.13,20.13,0,0,1-.25-3.49c0-.6.11-1.19.16-1.79a15.91,15.91,0,0,1,.2-1.73,12.36,12.36,0,0,1,1-3,36.3,36.3,0,0,1,1.94-3.4l.12-.18a4.91,4.91,0,0,0-1.14-6.43c-2.85-2.23-5.72-3.77-7.94-5.3a24.61,24.61,0,0,1-3-2.35c-.42-.42-.81-.83-1.19-1.29s-.81-1-1.17-1.54a24,24,0,0,1-3.3-6.92,22,22,0,0,1-.74-3.8,37.64,37.64,0,0,1-.27-4.11,40.52,40.52,0,0,1,3.18-16.11,36.42,36.42,0,0,1,9.48-13.06l0,0,.23-.19a5,5,0,0,0-6.9-7.2,48.37,48.37,0,0,0-11.45,16.88,52.32,52.32,0,0,0-3.8,19.8,50.76,50.76,0,0,0,.33,5.08,31.08,31.08,0,0,0,1,5.24,33.25,33.25,0,0,0,4.44,9.71c.48.74,1,1.46,1.56,2.17a24.77,24.77,0,0,0,1.86,2.14,31.39,31.39,0,0,0,4.14,3.5c1.29.94,2.52,1.75,3.67,2.51a2,2,0,0,1-.11.2,23,23,0,0,0-2.09,5.27c-.25,1-.34,1.78-.5,2.66s-.32,1.71-.37,2.6a33.73,33.73,0,0,0,.93,10.74c.24.87.56,1.73.85,2.59a16.12,16.12,0,0,0,1,2.5,33.68,33.68,0,0,0,2.67,4.68c.5.74,1.06,1.42,1.6,2.13a19.34,19.34,0,0,0,1.72,2,43.38,43.38,0,0,0,7.82,6.75l2.12,1.4,2.19,1.25c.72.43,1.48.81,2.24,1.18s1.5.75,2.27,1.07a64.37,64.37,0,0,0,9.46,3.23c1.59.45,3.22.73,4.83,1.1l1.85.29a122.23,122.23,0,0,1-29,39.7,152.45,152.45,0,0,1-21.32,16.27,181.36,181.36,0,0,1-23.57,12.6,223.65,223.65,0,0,1-50.94,15.43,237.18,237.18,0,0,1-53,3.61,216.31,216.31,0,0,1-52.55-8.84,165.87,165.87,0,0,1-48.38-23.38,139.52,139.52,0,0,1-20.69-18,117.1,117.1,0,0,1-8.87-10.64l-1.06-1.39-1-1.44-2-2.89c-1.22-2-2.54-3.95-3.66-6a122.12,122.12,0,0,1-8.56-18.34A51.69,51.69,0,0,0,260.94,455a50.22,50.22,0,0,0,8.88-8.09c.68-.73,1.27-1.53,1.88-2.3.31-.41.61-.76.92-1.21l.93-1.35a32.41,32.41,0,0,0,3-5.84A31.65,31.65,0,0,0,277,415a40.76,40.76,0,0,0,10.32-14.22,39.47,39.47,0,0,0,2.8-21.72c-.17-.89-.32-1.82-.52-2.7s-.41-1.72-.66-2.58c-.48-1.71-1.08-3.37-1.7-5a56.67,56.67,0,0,0-4.78-9.38,70,70,0,0,0-13.55-15.5,4.43,4.43,0,0,0-5.9,6.61l0,0a61.34,61.34,0,0,1,11.39,13.77,48.45,48.45,0,0,1,3.76,7.91c.46,1.37.92,2.74,1.26,4.15.19.7.33,1.41.49,2.12s.21,1.36.32,2a29.12,29.12,0,0,1-2.54,16,30.13,30.13,0,0,1-10.53,12.25A5.4,5.4,0,0,0,265.1,415l.2.57v0a21.32,21.32,0,0,1-.28,16,19.76,19.76,0,0,1-1.93,3.49l-.59.8c-.19.28-.48.59-.71.88-.5.57-1,1.2-1.5,1.75a39,39,0,0,1-6.77,6,37.49,37.49,0,0,1-7.93,4.29,41.19,41.19,0,0,1-8.81,2.51,51.85,51.85,0,0,1-9.34.72c-1.57,0-3.15-.1-4.7-.27-.78-.09-1.55-.18-2.32-.3l-1.1-.18-.93-.18-.73-.15-.31-.05-.46-.08-.95-.21c-.65-.16-1.32-.32-2-.52-1.32-.39-2.63-.85-3.91-1.37a37,37,0,0,1-7.22-4,31,31,0,0,1-10.26-12.45,35.56,35.56,0,0,1-2.54-8,46.25,46.25,0,0,1-.92-8.63,38.39,38.39,0,0,1,.08-4.3c.11-1.44.3-2.91.53-4.38.16-.86.32-1.73.5-2.6.81,0,1.62-.07,2.42-.16a32.57,32.57,0,0,0,11.09-3.28c.87-.43,1.71-1,2.57-1.48s1.61-1.18,2.41-1.78,1.51-1.36,2.2-2.09l1-1.16.49-.59.24-.3.31-.44a10.78,10.78,0,0,0,0-12.36,12,12,0,0,0-2.93-2.93,12.53,12.53,0,0,0-7.3-2.2,13,13,0,0,0-1.88.14c-.55.11-1.12.19-1.67.33a17.17,17.17,0,0,0-3.17,1.17,22.75,22.75,0,0,0-8.83,8.23,42.1,42.1,0,0,0-3.39,6.46l-.51-.15-.84-.33a11.51,11.51,0,0,1-1.63-.73,14.37,14.37,0,0,1-1.48-.87,18.2,18.2,0,0,1-1.45-1.12,19.89,19.89,0,0,1-2.71-2.55c-.42-.45-.73-1-1.1-1.47l-.56-.74c-.16-.26-.29-.55-.45-.81a21.47,21.47,0,0,1-2.58-7.1l-.32-1.92c-.06-.67-.08-1.33-.12-2,0-.33-.06-.66-.06-1l0-1c0-.67,0-1.34.08-2a39.84,39.84,0,0,1,1.65-8.08A35.92,35.92,0,0,1,180,346a29.06,29.06,0,0,1,13.49-7.92,20.54,20.54,0,0,1,3.7-.55,18.52,18.52,0,0,1,3.76.14,35.08,35.08,0,0,1,8,2c5.45,1.94,11.06,5.06,17.59,7.55.82.31,1.64.61,2.5.87s1.69.57,2.58.79,1.76.48,2.68.64l1.37.28.36.07.48.06,1,.1a15.43,15.43,0,0,0,2,0,18.9,18.9,0,0,0,2.09-.33,14,14,0,0,0,3.83-1.58,17.48,17.48,0,0,0,5.17-5c.49-.73.93-1.45,1.34-2.17,3.11-4.47,4.3-10.32,5.41-15.9,1-5.22,1.84-10.24,2.95-15,.53-2.29,1.28-4.77,2-7.19l1-3.63c.35-1.18.72-2.3,1.11-3.37a19.41,19.41,0,0,1,2.7-5.28,7.87,7.87,0,0,1,1.6-1.57,6.63,6.63,0,0,1,1.89-.91,15.19,15.19,0,0,1,5.61-.36c1.07.08,2.25.29,3.4.49l1.73.27,1.71.41c9.17,2.14,17.88,6.63,26,12.27A202.11,202.11,0,0,1,326.51,315c-.94.64-1.86,1.3-2.76,2a59.82,59.82,0,0,0-9.13,8.46,21.13,21.13,0,0,0-3.95,6.43l-.19.53-.14.61a10.87,10.87,0,0,0-.25,1.24c0,.46-.06.93-.07,1.38a9.15,9.15,0,0,0,.15,1.46,9.52,9.52,0,0,0,2.54,4.89,15.57,15.57,0,0,0,6.86,4,30.49,30.49,0,0,0,6.57,1.16A37.57,37.57,0,0,0,338.93,346a21.72,21.72,0,0,0,6.52-3,16.8,16.8,0,0,0,3-2.74,14.32,14.32,0,0,0,2.23-3.76,15.41,15.41,0,0,0,.93-4.19,17.39,17.39,0,0,0-.24-3.93,7.39,7.39,0,0,0-.19-1q-.17-.61-.36-1.2a8.78,8.78,0,0,0-.43-1.05,10.29,10.29,0,0,0-.47-.94,23.48,23.48,0,0,0-2-3c-.74-.94-1.51-1.8-2.28-2.61l2.66-1.51c2.82-1.56,5.62-3.09,8.43-4.57,5.63-2.94,11.29-5.65,17.05-8A108.48,108.48,0,0,1,391.31,299,82.59,82.59,0,0,1,409.14,297a61.08,61.08,0,0,1,8.79.76c1.47.18,2.85.55,4.28.84s2.86.71,4.26,1.22a72.8,72.8,0,0,1,16.25,7.52,66.43,66.43,0,0,1,13.83,11.19,51.69,51.69,0,0,1,9.64,14.5l1.91,4.17,4.57-.87c9.94-1.89,19.91-3.41,29.93-4.4A106.61,106.61,0,0,1,517,331.5a95.84,95.84,0,0,1,14.08,1.71c8.48,1.61,16.19,4.83,23.82,8.76l.1.06a7.76,7.76,0,0,0,7.83,1.17l.17-.06a55.36,55.36,0,0,1,14.59-3.82,37.3,37.3,0,0,1,14.18.91,25.76,25.76,0,0,1,11.32,6.61c.76.81,1.42,1.71,2.2,2.54l1,1.43.51.71.26.35.13.18,0,.05a6,6,0,0,1,.6,1.1c.23.48.45,1,.67,1.54a29.53,29.53,0,0,1,1,3.31,19.39,19.39,0,0,1,.52,3.19,9.5,9.5,0,0,1-.22,3,19.44,19.44,0,0,1-2.94,6.6c-.35.51-.74,1-1.11,1.48-.19.23-.39.45-.59.67a7.73,7.73,0,0,0-1.62,2.58,8,8,0,0,0,.11,5.93,8.49,8.49,0,0,0,.71,1.33c.27.4.7.88.71.9l.62.81a35.49,35.49,0,0,1,4.35,6.82A44.33,44.33,0,0,1,614.24,406.4ZM463.36,468.17a3,3,0,0,0-.44-6.05,140.56,140.56,0,0,1-17.43-.15A67.06,67.06,0,0,1,429,458.68a43.08,43.08,0,0,1-14-8,30.88,30.88,0,0,1-8.2-10.77l6.31.43h.08a2.78,2.78,0,0,0,1.43-5.21A2.82,2.82,0,0,0,411.8,433c-1.73,0-3.45.11-5.19.19l-12.42.44a2.76,2.76,0,1,0,.19,5.52l2-.06c0,.12,0,.24,0,.35a44.82,44.82,0,0,1-5.82,13.21,33.12,33.12,0,0,1-11.17,9.9,47,47,0,0,1-14.81,5.16,81.1,81.1,0,0,1-16.25,1.11h0a2.64,2.64,0,0,0-.29,5.27,85.93,85.93,0,0,0,17.49,0,54.07,54.07,0,0,0,17.33-4.78,41.07,41.07,0,0,0,14.67-11.41,43.47,43.47,0,0,0,4.57-7.1,42.92,42.92,0,0,0,7.18,7,51.9,51.9,0,0,0,17.33,8.63A74.21,74.21,0,0,0,445.13,469,146.77,146.77,0,0,0,463.36,468.17Zm-267.83-124c-.06.51.07,1.05,0,0Z"/><path class="cls-2" d="M362.43,442.26a2.78,2.78,0,0,1-2.51,2.85L328.77,448h-.37a56.71,56.71,0,0,0-3.45-6.61,2.77,2.77,0,0,1,2.53-2.84l.88-.08v0a2.78,2.78,0,0,1-1.44-2.46,2.69,2.69,0,0,1,.2-1,2.78,2.78,0,0,1-.63-2,2.72,2.72,0,0,1,.17-.81,2.77,2.77,0,0,1-1-2.17,2.84,2.84,0,0,1,.59-1.64,2.76,2.76,0,0,1,.27-4.3,2.6,2.6,0,0,1,.13-.24,2.8,2.8,0,0,1,2.56-2c7.67-.29,15.47-.35,23.17-.19h.06a2.75,2.75,0,0,1,2.13,1.15l2.53.19a2.77,2.77,0,0,1,.4,5.46c-.5.11-1,.21-1.51.29a2.7,2.7,0,0,1-.08.57,2.81,2.81,0,0,1,1.31,2.21,3.05,3.05,0,0,1,0,.52,34.09,34.09,0,0,0,4.26,5.24,3,3,0,0,1-.24,1.16,2.77,2.77,0,0,1,.85,2.13,2.07,2.07,0,0,1,0,.35A2.83,2.83,0,0,1,362.43,442.26Z"/><path class="cls-3" d="M341.67,330.06a7.71,7.71,0,0,1,.15,1.65,6.22,6.22,0,0,1-.26,1.26,4.16,4.16,0,0,1-.61,1,6.31,6.31,0,0,1-1.12,1,12.42,12.42,0,0,1-3.62,1.67,28.41,28.41,0,0,1-9.43,1,21.33,21.33,0,0,1-4.46-.72,6.24,6.24,0,0,1-2.76-1.43,2.31,2.31,0,0,1,.12-.27,9.53,9.53,0,0,1,2.34-2.75,48.7,48.7,0,0,1,8.33-5.57c1.53-.84,3.06-1.72,4.63-2.54l1.53-.8a35.14,35.14,0,0,1,3.63,3.75,12.13,12.13,0,0,1,1.13,1.62,2.31,2.31,0,0,1,.16.31c0,.08.13.23.11.26a.69.69,0,0,0,0,.13S341.64,329.94,341.67,330.06Z"/><path class="cls-2" d="M259.15,428.83l-.11.07.08-.06Z"/><path class="cls-2" d="M195.53,344.12c.07,1.05-.06.51,0,0Z"/><path class="cls-2" d="M132.16,276.93A10.11,10.11,0,0,1,136,290.7a10,10,0,0,1-3.68,3.71,9.17,9.17,0,0,1-5,1.41,2,2,0,0,1-.89-.22,1.53,1.53,0,0,1-.76-1.05,1.82,1.82,0,0,1,.19-1.32,1.84,1.84,0,0,1,1.43-.79c.31,0,.78-.06,1.39-.14A6.32,6.32,0,0,0,133,289a6.77,6.77,0,0,0-2.53-9.19,6.77,6.77,0,0,0-9.19,2.53,8.41,8.41,0,0,1-14.63-8.31,8.42,8.42,0,0,1,3.08-3.11,7.58,7.58,0,0,1,4.15-1.15,1.91,1.91,0,0,1,.91.23,1.54,1.54,0,0,1,.75,1,1.8,1.8,0,0,1-.19,1.31c-.18.33-1,.66-2.51,1a5,5,0,0,0-1.37,9.23,5.07,5.07,0,0,0,6.9-1.89,10.13,10.13,0,0,1,13.76-3.79Z"/><path class="cls-2" d="M127.46,296.37h-.23a2.44,2.44,0,0,1-1.15-.28,2.09,2.09,0,0,1-1-1.43,2.21,2.21,0,0,1,2.08-2.76c.35,0,.8-.07,1.4-.15a5.75,5.75,0,0,0,4-3,6.18,6.18,0,0,0-10.75-6.11,9,9,0,0,1-15.6-8.87,9,9,0,0,1,3.27-3.31,8.22,8.22,0,0,1,4.45-1.22,2.36,2.36,0,0,1,1.17.3,2.08,2.08,0,0,1,1,1.39,2.36,2.36,0,0,1-.24,1.71c-.21.36-.7.76-2.87,1.26a4.44,4.44,0,0,0-1.22,8.21,4.31,4.31,0,0,0,3.42.43,4.24,4.24,0,0,0,2.71-2.11A10.65,10.65,0,0,1,136.43,291a10.62,10.62,0,0,1-3.87,3.92A9.85,9.85,0,0,1,127.46,296.37Zm-.21-18a7.3,7.3,0,0,1,6.26,10.9,6.88,6.88,0,0,1-4.8,3.53c-.67.09-1.15.14-1.47.16a1.1,1.1,0,0,0-1.11,1.43,1,1,0,0,0,.49.69,1.38,1.38,0,0,0,.64.14,8.41,8.41,0,0,0,4.73-1.32,9.6,9.6,0,0,0,3.48-3.51,9.55,9.55,0,0,0-3.58-13h0a9.19,9.19,0,0,0-7.25-.9,9.1,9.1,0,0,0-5.76,4.48,5.61,5.61,0,0,1-9.76-5.55,5.36,5.36,0,0,1,3.63-2.61c1.85-.42,2.14-.72,2.16-.75a1.22,1.22,0,0,0,.12-.89,1,1,0,0,0-.48-.68,1.53,1.53,0,0,0-.66-.15,6.89,6.89,0,0,0-3.85,1.06,8,8,0,0,0-2.88,2.91,7.86,7.86,0,0,0,13.67,7.77,7,7,0,0,1,4.41-3.42A7.44,7.44,0,0,1,127.25,278.41Z"/><path class="cls-2" d="M146.14,270.67l-24.7-17.53a1.75,1.75,0,0,1-.41-2.35l4.87-6.86a10.11,10.11,0,0,1,16.48,11.71l-2.93,4.12a1.47,1.47,0,0,1-2.34.38l11,7.79a1.68,1.68,0,1,1-1.94,2.74Zm-9-10.53a1.47,1.47,0,0,1-.4-2.32l2.93-4.13a6.52,6.52,0,0,0,1.15-5,6.74,6.74,0,0,0-7.78-5.52,6.52,6.52,0,0,0-4.38,2.74l-3.89,5.49Z"/><path class="cls-2" d="M147.22,271.63a2.42,2.42,0,0,1-1.4-.51l-24.7-17.53a2.28,2.28,0,0,1-.54-3.12l4.86-6.86A10.66,10.66,0,0,1,142.83,256l-2.93,4.12a2.77,2.77,0,0,1-.82.79l9.32,6.61a2,2,0,0,1,.54,3.12A2.14,2.14,0,0,1,147.22,271.63Zm-12.95-31.42a10.49,10.49,0,0,0-1.74.15,9.25,9.25,0,0,0-6.18,3.89l-4.86,6.86a1.17,1.17,0,0,0,.27,1.58l24.7,17.53a1.13,1.13,0,1,0,1.3-1.84l-11-7.78h0l.09-.13-.09.13L124,251.5l4.21-5.94a7,7,0,0,1,4.74-3A7.29,7.29,0,0,1,140.09,254l-2.92,4.13a.94.94,0,0,0,.25,1.55h0a.95.95,0,0,0,1.57-.25l2.93-4.12a9.14,9.14,0,0,0,1.62-7.14,9.24,9.24,0,0,0-3.89-6.18A9.06,9.06,0,0,0,134.27,240.21Zm-8.76,11,10.28,7.29a2.77,2.77,0,0,1,.47-1l2.93-4.13a6.2,6.2,0,0,0-10.11-7.17Z"/><path class="cls-2" d="M183.5,224.41a1.48,1.48,0,0,1,.49,1.17,1.79,1.79,0,0,1-.45,1.23,1.54,1.54,0,0,1-1.66.49l-10-2.67a1.82,1.82,0,0,1-.34.51l-11.12,12.57a1.87,1.87,0,0,1-.46.39l3.87,9.61a1.53,1.53,0,0,1-.27,1.69,1.82,1.82,0,0,1-1.19.61,1.49,1.49,0,0,1-1.23-.36,1.88,1.88,0,0,1-.47-.69l-12.52-31.09a1.72,1.72,0,0,1,2.2-2.47l32.4,8.65A1.64,1.64,0,0,1,183.5,224.41Zm-15.18-.7-15.86-4.25,6.14,15.25Z"/><path class="cls-2" d="M162.14,250.58a2,2,0,0,1-1.36-.51,2.18,2.18,0,0,1-.62-.92l-12.52-31.07a2.26,2.26,0,0,1,2.86-3.21l32.39,8.65a2.05,2.05,0,0,1,1,.48h0a2,2,0,0,1,.68,1.58,2.41,2.41,0,0,1-.59,1.6,2.08,2.08,0,0,1-2.22.65l-9.6-2.56a2,2,0,0,1-.18.23l-11.12,12.57a2.08,2.08,0,0,1-.21.21l3.71,9.22a2.07,2.07,0,0,1-.37,2.27,2.38,2.38,0,0,1-1.53.79Zm-12.59-34.75a1,1,0,0,0-.82.35c-.2.22-.42.62-.07,1.48l12.53,31.09a1.23,1.23,0,0,0,.32.49,1,1,0,0,0,.79.22,1.28,1.28,0,0,0,.85-.43,1,1,0,0,0,.16-1.12l-4-10,.4-.25a1.5,1.5,0,0,0,.34-.29l11.12-12.57a1.38,1.38,0,0,0,.24-.37l.2-.42L182,226.76a1,1,0,0,0,1.1-.32,1.23,1.23,0,0,0,.31-.86.92.92,0,0,0-.31-.75,1,1,0,0,0-.49-.23l-32.43-8.66A2.26,2.26,0,0,0,149.55,215.83Zm8.87,19.91-6.89-17.1,17.8,4.77Zm-5-15.46,5.39,13.39,8.54-9.66Z"/><path class="cls-2" d="M224.8,189.6a1.65,1.65,0,0,1,.31,1.26,1.66,1.66,0,0,1-1.89,1.47l-6-.76a9.48,9.48,0,0,1-3.88,9,10.11,10.11,0,0,1-14.16-1.83,9.49,9.49,0,0,1-1.46-9.7,9.16,9.16,0,0,1-6.46-3.33,8.42,8.42,0,0,1,13.33-10.28,8.47,8.47,0,0,1-.62,11L223.66,189A1.6,1.6,0,0,1,224.8,189.6ZM202,177.48a5.06,5.06,0,1,0-5.44,7.92,22.35,22.35,0,0,0,3.13.49,10.09,10.09,0,0,1,1.39-1.31,5.06,5.06,0,0,0,.92-7.1ZM213.8,191.1l-12.57-1.6a6.25,6.25,0,0,0,.64,7.2,6.78,6.78,0,0,0,9.45,1.22A6.32,6.32,0,0,0,213.8,191.1Z"/><path class="cls-2" d="M207.33,203.23a12.71,12.71,0,0,1-1.49-.1,10.31,10.31,0,0,1-7.07-4,10,10,0,0,1-1.76-9.59,9.46,9.46,0,0,1-6.16-3.44,9,9,0,0,1,1.61-12.57A9,9,0,0,1,205.09,186l18.65,2.42a2.2,2.2,0,0,1,1.5.81h0a2.26,2.26,0,0,1-2.08,3.62l-5.3-.67a10,10,0,0,1-4.15,8.8A10.25,10.25,0,0,1,207.33,203.23Zm-9.5-30.52a7.88,7.88,0,0,0-6.11,12.66,8.72,8.72,0,0,0,6.09,3.12l.7.09-.25.65a9,9,0,0,0,1.38,9.17A9.28,9.28,0,0,0,206,202a9.17,9.17,0,0,0,7-1.9,8.89,8.89,0,0,0,3.67-8.5l-.07-.69,6.66.84a1.14,1.14,0,0,0,.84-.21,1.23,1.23,0,0,0,.23-1.63h0a1.11,1.11,0,0,0-.77-.4l-20.76-2.69.77-.79a7.93,7.93,0,0,0,.58-10.29,7.53,7.53,0,0,0-5.23-3A10.69,10.69,0,0,0,197.83,172.71Zm9.46,27.16a8.72,8.72,0,0,1-1-.07,7.07,7.07,0,0,1-4.85-2.77,6.77,6.77,0,0,1-.69-7.79l.18-.34,13.34,1.7.08.38a6.83,6.83,0,0,1-2.68,7.37A7,7,0,0,1,207.29,199.87Zm-5.74-9.77a5.62,5.62,0,0,0,.76,6.26,6.22,6.22,0,0,0,8.67,1.12,5.68,5.68,0,0,0,2.35-5.88Zm-1.67-3.63-.29,0a23.09,23.09,0,0,1-3.23-.51,5.55,5.55,0,0,1-4-6.07,5.62,5.62,0,0,1,10-2.72h0a5.62,5.62,0,0,1-1,7.88,9.5,9.5,0,0,0-1.31,1.23Zm-2-10.4a4.49,4.49,0,0,0-1.21,8.8,21.49,21.49,0,0,0,2.76.44,10.09,10.09,0,0,1,1.28-1.17,4.51,4.51,0,0,0,.81-6.32h0a4.28,4.28,0,0,0-3-1.71A4.82,4.82,0,0,0,197.88,176.07Z"/><path class="cls-2" d="M269.54,163.41a1.48,1.48,0,0,1-.69,2.27l-14.91,7.82a1.74,1.74,0,0,1-2.28-.71L237.59,146a1.74,1.74,0,0,1,.71-2.28l14.91-7.83a1.68,1.68,0,0,1,1.56,3l-13.43,7,5.48,10.46,10.44-5.47a1.68,1.68,0,1,1,1.56,3l-10.44,5.48,5.48,10.43,13.43-7A1.47,1.47,0,0,1,269.54,163.41Z"/><path class="cls-2" d="M253.21,174.24a2.56,2.56,0,0,1-.71-.11,2.19,2.19,0,0,1-1.33-1.08L237.1,146.23a2.2,2.2,0,0,1-.14-1.71A2.17,2.17,0,0,1,238,143.2L253,135.37a2.23,2.23,0,0,1,2.07,4l-12.93,6.79,5,9.48,9.94-5.22a2.23,2.23,0,1,1,2.08,4l-9.95,5.22,5,9.46L267,162.22a2,2,0,0,1,3,.93h0a2,2,0,0,1-.92,3L254.2,174A2.08,2.08,0,0,1,253.21,174.24Zm.92-38.09a1.49,1.49,0,0,0-.66.2l-14.91,7.83a1.05,1.05,0,0,0-.54.67,1.06,1.06,0,0,0,.06.86l14.07,26.82a1.2,1.2,0,0,0,1.54.48l14.9-7.82c.71-.37.84-.8.46-1.52h0a.94.94,0,0,0-1.5-.47l-13.92,7.3-6-11.42,10.92-5.73a1,1,0,0,0,.48-1.53c-.37-.72-.8-.84-1.52-.46l-10.93,5.73-6-11.44,13.92-7.3a1,1,0,0,0,.47-1.51C254.74,136.38,254.47,136.15,254.13,136.15Z"/><path class="cls-2" d="M293.37,144.31a10.12,10.12,0,0,1-5.6,13.13,10.1,10.1,0,0,1-5.19.62,9.14,9.14,0,0,1-4.81-2,1.85,1.85,0,0,1-.57-.72,1.53,1.53,0,0,1,.07-1.3,1.78,1.78,0,0,1,1-.91,1.81,1.81,0,0,1,1.61.28c.26.18.65.43,1.18.75a6.38,6.38,0,0,0,5.5.21,6.74,6.74,0,0,0-5-12.51,8.41,8.41,0,0,1-10.87-11.11,8.17,8.17,0,0,1,4.59-4.51,8.49,8.49,0,0,1,4.35-.52,7.55,7.55,0,0,1,4,1.69,1.92,1.92,0,0,1,.57.75,1.49,1.49,0,0,1-.06,1.27,1.73,1.73,0,0,1-.95.91c-.35.14-1.21-.12-2.59-.78a4.78,4.78,0,0,0-4-.2,5.06,5.06,0,0,0,3.77,9.39,10.12,10.12,0,0,1,13.13,5.6Z"/><path class="cls-2" d="M284,158.71a11.59,11.59,0,0,1-1.54-.1,9.84,9.84,0,0,1-5.09-2.16,2.42,2.42,0,0,1-.72-.94,2,2,0,0,1,.08-1.75,2.31,2.31,0,0,1,1.26-1.18,2.34,2.34,0,0,1,2.09.31c.29.2.67.44,1.19.75a5.72,5.72,0,0,0,5,.17,6.18,6.18,0,0,0-4.61-11.47A9,9,0,0,1,275,125.69a9.11,9.11,0,0,1,4.62-.56,8.18,8.18,0,0,1,4.25,1.82,2.56,2.56,0,0,1,.73,1,2.07,2.07,0,0,1-.08,1.72,2.31,2.31,0,0,1-1.25,1.19c-.38.15-1,.16-3-.8a4.22,4.22,0,0,0-3.58-.19,4.3,4.3,0,0,0-2.45,2.41,4.5,4.5,0,0,0,2.37,5.91,4.25,4.25,0,0,0,3.44,0,10.69,10.69,0,0,1,13.86,5.91h0A10.69,10.69,0,0,1,288,158,10.54,10.54,0,0,1,284,158.71Zm-5.33-5.16a.76.76,0,0,0-.27,0,1.3,1.3,0,0,0-.68.65,1,1,0,0,0-.05.84,1.6,1.6,0,0,0,.41.51,8.63,8.63,0,0,0,4.53,1.91,9.55,9.55,0,0,0,4.91-.58,9.1,9.1,0,0,0,5.21-5.11,9.22,9.22,0,0,0,.09-7.3h0a9.25,9.25,0,0,0-5.11-5.21,9.09,9.09,0,0,0-7.3-.09,5.62,5.62,0,0,1-4.19-10.42,5.4,5.4,0,0,1,4.47.22c1.71.82,2.12.77,2.16.76a1.21,1.21,0,0,0,.65-.63,1,1,0,0,0,0-.83,1.48,1.48,0,0,0-.42-.53,7,7,0,0,0-3.67-1.56,8,8,0,0,0-4.07.49,7.86,7.86,0,0,0,5.86,14.59,7.29,7.29,0,0,1,5.44,13.53,6.88,6.88,0,0,1-6-.23c-.57-.35-1-.6-1.24-.79A1.75,1.75,0,0,0,278.71,153.55Z"/><path class="cls-2" d="M320.32,113.09a1.49,1.49,0,0,1-1.16,2.08l-8.08,2.32L319,145a1.68,1.68,0,1,1-3.23.93l-7.93-27.49-8.07,2.32a1.68,1.68,0,1,1-.94-3.22l19.39-5.59A1.49,1.49,0,0,1,320.32,113.09Z"/><path class="cls-2" d="M317.2,147.74a1.81,1.81,0,0,1-.93-.23,2.28,2.28,0,0,1-1-1.43l-7.78-27-7.54,2.18a2.23,2.23,0,1,1-1.24-4.29l19.38-5.59a2.23,2.23,0,0,1,1.76.1,2.26,2.26,0,0,1,1,1.43h0a2.18,2.18,0,0,1-.11,1.74,2.28,2.28,0,0,1-1.43,1l-7.55,2.17,7.78,27a2,2,0,0,1-1.52,2.78A3.07,3.07,0,0,1,317.2,147.74Zm-9-30,8.09,28a1,1,0,0,0,1.39.78c.78-.22,1-.62.77-1.4l-8.09-28,8.61-2.49a1.18,1.18,0,0,0,.77-.49,1.12,1.12,0,0,0,0-.89h0a1.17,1.17,0,0,0-.49-.77,1.21,1.21,0,0,0-.91,0L299,118.06c-.79.23-1,.62-.78,1.41s.62,1,1.4.75Z"/><path class="cls-2" d="M359.59,136.33a1.49,1.49,0,0,1-1.35,2l-16.58,2.92a1.63,1.63,0,0,1-1.25-.3,1.65,1.65,0,0,1-.71-1.07L334.45,110a1.74,1.74,0,0,1,1.37-2l16.58-2.92a1.68,1.68,0,0,1,.58,3.31l-14.93,2.63,2,11.63,11.61-2a1.68,1.68,0,1,1,.58,3.31l-11.6,2,2,11.61L357.66,135A1.48,1.48,0,0,1,359.59,136.33ZM347.65,97.51a1.56,1.56,0,0,1-.67,1.6l-6.06,4.48a1.88,1.88,0,0,1-.74.33,1.5,1.5,0,0,1-1.25-.33,1.84,1.84,0,0,1-.68-1.14,1.5,1.5,0,0,1,.66-1.58l6-4.47a1.85,1.85,0,0,1,.76-.35,1.51,1.51,0,0,1,1.24.33A1.76,1.76,0,0,1,347.65,97.51Z"/><path class="cls-2" d="M341.37,141.79a2.33,2.33,0,0,1-2.21-1.86l-5.25-29.83a2.12,2.12,0,0,1,.38-1.66,2.17,2.17,0,0,1,1.44-.94l16.57-2.92a2.23,2.23,0,0,1,1.73.3,2.25,2.25,0,0,1,.85,1.53,2,2,0,0,1-1.8,2.57l-14.39,2.53,1.85,10.55,11.06-2a2,2,0,0,1,2.6,1.79,2,2,0,0,1-1.82,2.61l-11.06,1.94L343.17,137l14.39-2.53a2,2,0,0,1,2.57,1.8h0a2,2,0,0,1-1.79,2.59l-16.58,2.92A1.72,1.72,0,0,1,341.37,141.79Zm11.49-36.15-.36,0-16.58,2.92a1.1,1.1,0,0,0-.72.48,1,1,0,0,0-.2.84l5.25,29.83a1.06,1.06,0,0,0,.48.72,1,1,0,0,0,.83.2l16.58-2.92c.79-.14,1-.5.9-1.31h0c-.13-.79-.5-1-1.29-.9l-15.48,2.72L340,125.56l12.16-2.14A1.27,1.27,0,0,0,353,123a1.23,1.23,0,0,0,.1-.91c-.14-.79-.51-1-1.32-.9l-12.14,2.14-2.24-12.72,15.47-2.73c.8-.14,1.05-.5.91-1.29a1.27,1.27,0,0,0-.4-.82A1,1,0,0,0,352.86,105.64Zm-13-1.14a2.1,2.1,0,0,1-1.32-.48,2.36,2.36,0,0,1-.88-1.48,2.05,2.05,0,0,1,.88-2.11L344.63,96a2.4,2.4,0,0,1,1-.44,2.05,2.05,0,0,1,1.67.43,2.36,2.36,0,0,1,.9,1.47h0a2.12,2.12,0,0,1-.89,2.14L341.25,104a2.36,2.36,0,0,1-1,.42A1.55,1.55,0,0,1,339.9,104.5ZM346,96.58l-.17,0a1.31,1.31,0,0,0-.53.24l-6.05,4.48a1,1,0,0,0-.45,1,1.29,1.29,0,0,0,.48.8,1,1,0,0,0,.81.22,1.14,1.14,0,0,0,.52-.23l6-4.47a1,1,0,0,0,.46-1.07h0a1.24,1.24,0,0,0-.49-.78A1,1,0,0,0,346,96.58Z"/><path class="cls-2" d="M391.05,103.28a1.49,1.49,0,0,1-1.57,1.78l-8.39.57,2,28.56a1.68,1.68,0,1,1-3.35.23l-2-28.56-8.39.58a1.68,1.68,0,1,1-.23-3.35l20.13-1.38A1.49,1.49,0,0,1,391.05,103.28Z"/><path class="cls-2" d="M381.29,136.55a2,2,0,0,1-2.14-2.1l-1.92-28-7.84.54a2,2,0,0,1-2.39-2.06,2,2,0,0,1,2.08-2.39l20.13-1.39a2.06,2.06,0,0,1,2.39,2.09h0a2,2,0,0,1-2.09,2.37l-7.83.54,1.92,28a2,2,0,0,1-2.07,2.39Zm-3-31.28,2,29.11c.06.82.4,1.12,1.2,1.06a1.22,1.22,0,0,0,.85-.32,1.24,1.24,0,0,0,.2-.9l-2-29.1,8.94-.62c.81,0,1.11-.38,1.06-1.18h0c-.06-.82-.4-1.11-1.21-1.06l-20.13,1.38a1.25,1.25,0,0,0-.86.32,1.22,1.22,0,0,0-.19.89c.05.8.38,1.1,1.21,1Z"/><path class="cls-2" d="M407.89,133.66a1.68,1.68,0,1,1-3.35-.06l.49-30.28a1.68,1.68,0,1,1,3.35.06Z"/><path class="cls-2" d="M406.24,135.88h-.06a2.21,2.21,0,0,1-1.64-.62,2.25,2.25,0,0,1-.56-1.66l.49-30.29a2.27,2.27,0,0,1,.61-1.65,2.39,2.39,0,0,1,1.66-.55,2.2,2.2,0,0,1,1.64.61,2.25,2.25,0,0,1,.56,1.67l-.49,30.28a2.27,2.27,0,0,1-.61,1.65A2.23,2.23,0,0,1,406.24,135.88Zm.44-33.67a1.15,1.15,0,0,0-.83.25,1.25,1.25,0,0,0-.27.87l-.49,30.28a.95.95,0,0,0,1.1,1.16.95.95,0,0,0,1.15-1.12l.49-30.28a1.19,1.19,0,0,0-.24-.88,1.2,1.2,0,0,0-.87-.28Z"/><path class="cls-2" d="M449.92,132.49a1.77,1.77,0,0,1-.66,1.09,13.58,13.58,0,0,1-5.77,3.07,17.67,17.67,0,0,1-6.56.59,16.82,16.82,0,0,1-8.8-29.83,16.22,16.22,0,0,1,12.34-3.65,17.43,17.43,0,0,1,6.29,1.95,13.65,13.65,0,0,1,5,4.19,1.89,1.89,0,0,1,.4,1.24,1.63,1.63,0,0,1-.64,1.15,1.73,1.73,0,0,1-1.27.4,1.85,1.85,0,0,1-1.09-.66c-.31-.34-.79-.85-1.43-1.51a12.78,12.78,0,0,0-7.63-3.43,13.48,13.48,0,0,0-2.84,26.81,12.74,12.74,0,0,0,8.18-1.74q.56-.42,1.71-1.17a1.85,1.85,0,0,1,1.21-.41,1.65,1.65,0,0,1,1.15.64A1.69,1.69,0,0,1,449.92,132.49Z"/><path class="cls-2" d="M438.63,137.88a17.14,17.14,0,0,1-1.76-.09,17.39,17.39,0,0,1,3.66-34.58,18.32,18.32,0,0,1,6.49,2,14.29,14.29,0,0,1,5.2,4.38,2.34,2.34,0,0,1,.5,1.6,2.15,2.15,0,0,1-.85,1.53,2.21,2.21,0,0,1-1.67.52,2.44,2.44,0,0,1-1.44-.83c-.31-.35-.78-.85-1.42-1.5a12.24,12.24,0,0,0-7.29-3.27,12.93,12.93,0,0,0-2.72,25.71,12.29,12.29,0,0,0,7.83-1.67c.34-.25.92-.64,1.69-1.16a2.33,2.33,0,0,1,1.58-.49,2.17,2.17,0,0,1,1.52.85,2.21,2.21,0,0,1,.52,1.67,2.38,2.38,0,0,1-.83,1.44,14.1,14.1,0,0,1-6,3.19A18.68,18.68,0,0,1,438.63,137.88Zm-.07-33.67A16.29,16.29,0,0,0,437,136.69a17.45,17.45,0,0,0,6.36-.57,13.14,13.14,0,0,0,5.53-2.94,1.32,1.32,0,0,0,.49-.75h0a1.14,1.14,0,0,0-.28-.86,1.07,1.07,0,0,0-.78-.44,1.43,1.43,0,0,0-.84.31c-.76.51-1.32.9-1.69,1.16a13.34,13.34,0,0,1-8.56,1.85,14,14,0,0,1,2.95-27.91,13.34,13.34,0,0,1,7.95,3.58c.67.68,1.15,1.2,1.46,1.54a1.37,1.37,0,0,0,.74.47,1.13,1.13,0,0,0,.86-.27,1.08,1.08,0,0,0,.44-.78,1.36,1.36,0,0,0-.31-.87,13.39,13.39,0,0,0-4.81-4,17,17,0,0,0-6.09-1.88A16.51,16.51,0,0,0,438.56,104.21Z"/><path class="cls-2" d="M492,146.49a1.49,1.49,0,0,1-.8,1,1.81,1.81,0,0,1-1.3.17,1.54,1.54,0,0,1-1.21-1.24l-2.31-10.09a2.18,2.18,0,0,1-.61-.06l-16.3-4a2.43,2.43,0,0,1-.57-.23l-6.69,7.9a1.52,1.52,0,0,1-1.62.56,1.83,1.83,0,0,1-1.09-.77,1.51,1.51,0,0,1-.26-1.25,1.73,1.73,0,0,1,.4-.74l21.64-25.59a1.86,1.86,0,0,1,1.9-.81,1.84,1.84,0,0,1,1.31,1.61L492,145.66A1.67,1.67,0,0,1,492,146.49Zm-6.47-13.75-3.64-16L471.3,129.27Z"/><path class="cls-2" d="M490.35,148.25a2,2,0,0,1-.55-.07,2.11,2.11,0,0,1-1.62-1.65L486,136.84l-.29-.05-16.3-4-.28-.08-6.43,7.58a2,2,0,0,1-2.17.73,2.39,2.39,0,0,1-1.42-1,2.05,2.05,0,0,1-.33-1.7,2.15,2.15,0,0,1,.51-1l21.64-25.57a2.26,2.26,0,0,1,4.17,1l7.47,32.68a2.12,2.12,0,0,1,0,1.09,2.07,2.07,0,0,1-1.09,1.34A2.47,2.47,0,0,1,490.35,148.25Zm-3.51-12.52,2.42,10.55a1,1,0,0,0,.8.83A1.29,1.29,0,0,0,491,147a.93.93,0,0,0,.52-.62h0a1.15,1.15,0,0,0,0-.55L484,113.09c-.2-.92-.61-1.12-.9-1.19s-.75-.08-1.34.63l-21.65,25.59a1.08,1.08,0,0,0-.28.51.94.94,0,0,0,.18.81,1.29,1.29,0,0,0,.76.54,1,1,0,0,0,1.07-.37l7-8.26.4.24a1.4,1.4,0,0,0,.41.16l16.31,4a1.67,1.67,0,0,0,.43,0Zm-.54-2.24-16-3.9,11.91-14.07Zm-14-4.55L484.83,132l-3.21-14.06Z"/><path class="cls-2" d="M546.91,164.35a1.78,1.78,0,0,1-1,.83,13.67,13.67,0,0,1-6.46,1,17.66,17.66,0,0,1-6.39-1.57,16.84,16.84,0,0,1,14.21-30.53,17.79,17.79,0,0,1,5.32,3.89,13.8,13.8,0,0,1,3.37,5.59,1.9,1.9,0,0,1,0,1.3,1.78,1.78,0,0,1-2.31.84,1.81,1.81,0,0,1-.82-1c-.18-.43-.47-1.06-.86-1.89a12.75,12.75,0,0,0-6.11-5.72,13.48,13.48,0,0,0-11.37,24.44,12.73,12.73,0,0,0,8.3,1c.44-.14,1.1-.32,2-.55a1.91,1.91,0,0,1,1.28,0,1.69,1.69,0,0,1,.88,1A1.64,1.64,0,0,1,546.91,164.35Z"/><path class="cls-2" d="M540.52,166.79l-1.07,0a18.3,18.3,0,0,1-6.59-1.62,17.39,17.39,0,0,1,14.67-31.53,18.13,18.13,0,0,1,5.49,4,14.26,14.26,0,0,1,3.5,5.82,2.38,2.38,0,0,1,0,1.68,2.32,2.32,0,0,1-3,1.11,2.32,2.32,0,0,1-1.1-1.24c-.18-.44-.46-1.06-.85-1.88a12.19,12.19,0,0,0-5.84-5.46,12.93,12.93,0,0,0-10.91,23.44,12.27,12.27,0,0,0,7.95,1c.4-.13,1.07-.31,2-.55a2.41,2.41,0,0,1,1.65,0,2.34,2.34,0,0,1,1.11,3.05h0a2.3,2.3,0,0,1-1.25,1.1A13.61,13.61,0,0,1,540.52,166.79Zm-.25-33.73a16.35,16.35,0,0,0-5.64,1,16.27,16.27,0,0,0-1.31,30,17.29,17.29,0,0,0,6.2,1.53,13.08,13.08,0,0,0,6.19-1,1.29,1.29,0,0,0,.7-.55h0a1.12,1.12,0,0,0,0-.9,1.08,1.08,0,0,0-.6-.67,1.42,1.42,0,0,0-.89,0c-.89.23-1.54.41-2,.55A14,14,0,0,1,527,154.18a14,14,0,0,1,19.08-17.53,13.3,13.3,0,0,1,6.37,6c.41.87.7,1.51.88,1.94a1.32,1.32,0,0,0,.55.68,1.23,1.23,0,0,0,1.57-.57,1.43,1.43,0,0,0,0-.92,13.31,13.31,0,0,0-3.25-5.36,17.19,17.19,0,0,0-5.15-3.77A16,16,0,0,0,540.27,133.06Z"/><path class="cls-2" d="M582.21,191.25a1.45,1.45,0,0,1-1.08.67,1.79,1.79,0,0,1-1.29-.25,1.53,1.53,0,0,1-.73-1.56l1.08-10.3a2.12,2.12,0,0,1-.55-.26l-14.14-9a2,2,0,0,1-.46-.4l-8.9,5.31a1.52,1.52,0,0,1-1.71,0,1.81,1.81,0,0,1-.78-1.08,1.51,1.51,0,0,1,.16-1.27,1.6,1.6,0,0,1,.61-.57l28.77-17.19a1.72,1.72,0,0,1,2.78,1.79l-3.52,33.35A1.71,1.71,0,0,1,582.21,191.25Zm-1.66-15.1,1.74-16.33-14.11,8.42Z"/><path class="cls-2" d="M580.8,192.5a2.3,2.3,0,0,1-1.25-.36,2.07,2.07,0,0,1-1-2.09l1-9.88a2.2,2.2,0,0,1-.26-.15l-14.14-9-.24-.17-8.53,5.09a2.05,2.05,0,0,1-2.29,0,2.35,2.35,0,0,1-1-1.39,2.09,2.09,0,0,1,.23-1.72,2.25,2.25,0,0,1,.81-.75l28.76-17.18a2.26,2.26,0,0,1,3.61,2.33L583,190.52a2.12,2.12,0,0,1-.33,1,2,2,0,0,1-1.46.92A2.83,2.83,0,0,1,580.8,192.5Zm-15.64-23.09.3.35a1.4,1.4,0,0,0,.34.29l14.13,9a1.47,1.47,0,0,0,.41.18l.45.13-1.13,10.76a1,1,0,0,0,.48,1,1.28,1.28,0,0,0,.91.18.94.94,0,0,0,.69-.42h0a1,1,0,0,0,.15-.52l3.53-33.38c.12-.93-.21-1.25-.46-1.42s-.69-.32-1.48.16L554.71,173a1.11,1.11,0,0,0-.43.4.93.93,0,0,0-.1.82,1.34,1.34,0,0,0,.55.76,1,1,0,0,0,1.13,0ZM581,177.1l-13.88-8.87L583,158.78Zm-11.78-8.84,10.87,6.94,1.52-14.33Z"/><path class="cls-2" d="M611.49,215.4a1.52,1.52,0,0,1-2.42.19,2,2,0,0,1-.57-1.63L610,180.79l-16.45,19.36A1.68,1.68,0,1,1,591,198l19.6-23.06a1.53,1.53,0,0,1,2.42-.2,1.92,1.92,0,0,1,.54,1.65l-1.43,33.16,16.45-19.36a1.49,1.49,0,0,1,2.37-.21,1.51,1.51,0,0,1,.19,2.39Z"/><path class="cls-2" d="M610.23,216.65a2.33,2.33,0,0,1-1.52-.64,2.44,2.44,0,0,1-.76-2.07l1.39-31.56L593.93,200.5a2,2,0,0,1-3.15.27,2.23,2.23,0,0,1-.88-1.51,2.26,2.26,0,0,1,.63-1.65l19.6-23.06a2.27,2.27,0,0,1,1.54-.89,2.34,2.34,0,0,1,1.66.63,2.5,2.5,0,0,1,.74,2.1l-1.37,31.54,15.41-18.13a2.29,2.29,0,0,1,1.51-.89,2.23,2.23,0,0,1,1.63.62,2,2,0,0,1,.26,3.16l-19.6,23.07a2.31,2.31,0,0,1-1.54.89Zm.35-37.45L609.05,214a1.44,1.44,0,0,0,.38,1.18,1.29,1.29,0,0,0,.85.38,1.27,1.27,0,0,0,.78-.51L630.67,192a1,1,0,0,0-.13-1.61,1.19,1.19,0,0,0-.82-.35,1.23,1.23,0,0,0-.77.5l-17.5,20.58L613,176.34a1.41,1.41,0,0,0-.35-1.2,1.36,1.36,0,0,0-.85-.38,1.24,1.24,0,0,0-.79.51l-19.6,23.06a1.23,1.23,0,0,0-.37.84,1.22,1.22,0,0,0,.49.75,1,1,0,0,0,1.6-.13Z"/><path class="cls-2" d="M624.12,228.26a1.68,1.68,0,1,1-2.33-2.41l21.74-21.08a1.68,1.68,0,1,1,2.34,2.41Z"/><path class="cls-2" d="M622.94,229.4h0a2.26,2.26,0,0,1-1.57-.78,2,2,0,0,1,.06-3.16l21.75-21.09a2,2,0,0,1,3.16,0,2,2,0,0,1-.06,3.17l-21.74,21.08h0A2.26,2.26,0,0,1,622.94,229.4Zm21.78-24.65a1.21,1.21,0,0,0-.8.42l-21.75,21.08a1,1,0,0,0,0,1.6,1.17,1.17,0,0,0,.79.44h0a1.23,1.23,0,0,0,.8-.42h0l21.74-21.09a1.16,1.16,0,0,0,.45-.79,1.13,1.13,0,0,0-.41-.8A1.14,1.14,0,0,0,644.72,204.75Z"/><path class="cls-2" d="M651.05,259.92a1.51,1.51,0,0,1-2.41-.27,1.94,1.94,0,0,1-.25-1.7l7.79-32.28-19.85,15.84a1.68,1.68,0,1,1-2.1-2.62L657.89,220a1.51,1.51,0,0,1,2.4.27,1.92,1.92,0,0,1,.22,1.72l-7.76,32.27,19.86-15.85a1.48,1.48,0,0,1,2.36.25,1.5,1.5,0,0,1-.27,2.38Z"/><path class="cls-2" d="M649.91,261h-.2a2.29,2.29,0,0,1-1.51-.94,2.48,2.48,0,0,1-.35-2.18l7.41-30.71L636.67,242a2.29,2.29,0,0,1-1.66.58,2.25,2.25,0,0,1-1.49-.93,2,2,0,0,1,.37-3.14l23.65-18.88a2.05,2.05,0,0,1,3.19.36,2.42,2.42,0,0,1,.32,2.2l-7.38,30.69L672.26,238a2.23,2.23,0,1,1,2.79,3.49l-23.66,18.88A2.39,2.39,0,0,1,649.91,261Zm7.18-36.72-8.16,33.84a1.41,1.41,0,0,0,.14,1.24,1.27,1.27,0,0,0,.77.53,1.2,1.2,0,0,0,.86-.35l23.66-18.88a1.12,1.12,0,1,0-1.41-1.75l-21.11,16.85L660,221.87a1.42,1.42,0,0,0-.11-1.24,1.23,1.23,0,0,0-.76-.54,1.31,1.31,0,0,0-.87.35l-23.66,18.88a1,1,0,0,0-.18,1.59,1.2,1.2,0,0,0,.74.52,1.25,1.25,0,0,0,.85-.35Z"/><path class="cls-2" d="M675.31,298.81a1.49,1.49,0,0,1-1.26.12,1.81,1.81,0,0,1-1-.81,1.54,1.54,0,0,1,0-1.73l5.58-8.72a2.23,2.23,0,0,1-.38-.47l-8.59-14.42a2.19,2.19,0,0,1-.24-.55L659.1,273a1.53,1.53,0,0,1-1.53-.77,1.83,1.83,0,0,1-.22-1.32,1.5,1.5,0,0,1,.71-1.06,1.82,1.82,0,0,1,.8-.24l33.43-2.48a1.86,1.86,0,0,1,1.91.79A1.84,1.84,0,0,1,694,270l-18.09,28.24A1.57,1.57,0,0,1,675.31,298.81Zm5.28-14.24,8.87-13.82L673.07,272Z"/><path class="cls-2" d="M674.58,299.57a2.19,2.19,0,0,1-.7-.12,2.35,2.35,0,0,1-1.34-1,2.07,2.07,0,0,1,.05-2.31l5.35-8.37a2.13,2.13,0,0,1-.16-.25l-8.6-14.41-.13-.26-9.91.73a2.08,2.08,0,0,1-2-1,2.33,2.33,0,0,1-.28-1.7,2,2,0,0,1,1-1.44,2.26,2.26,0,0,1,1.06-.31l33.4-2.48a2.27,2.27,0,0,1,2.2,3.71L676.35,298.5a2.13,2.13,0,0,1-.76.79h0A2,2,0,0,1,674.58,299.57Zm-4.73-27.93.11.45a1.47,1.47,0,0,0,.18.41l8.59,14.41a1.23,1.23,0,0,0,.28.35l.34.32-5.83,9.11a1,1,0,0,0,0,1.15,1.27,1.27,0,0,0,.73.56.91.91,0,0,0,.81-.07.86.86,0,0,0,.36-.39l18.12-28.27c.51-.78.37-1.22.21-1.48s-.46-.59-1.39-.51l-33.42,2.48a1.11,1.11,0,0,0-.56.16.92.92,0,0,0-.46.68,1.34,1.34,0,0,0,.15.93,1,1,0,0,0,1,.5Zm10.73,14-8.44-14.15,18.39-1.36ZM674,272.44l6.6,11.07,7.79-12.13Z"/><path class="cls-2" d="M193.67,552.22q-6.94-8.49-15.69-8.86t-18,7.19q-9.36,7.65-10.31,16.8t6,17.63a28.13,28.13,0,0,0,7.45,6.68,68.27,68.27,0,0,0,7.6,3.81,13.34,13.34,0,0,1-5.25,10.91c-2.94,2.41-6.79,2.77-11.57,1.11s-10-5.92-15.55-12.75A59.21,59.21,0,0,1,129,579.19a40.09,40.09,0,0,1-3-16.49,38.27,38.27,0,0,1,4.48-16.45q4.22-8.13,13.24-15.52a48.88,48.88,0,0,1,17-9.41,39.72,39.72,0,0,1,32.48,4A50.62,50.62,0,0,1,206.48,537q8.29,10.13,9.62,18.33t-3.72,12.34a10.66,10.66,0,0,1-6,2.52,14.94,14.94,0,0,1-5.93-.66,46.42,46.42,0,0,0-1.89-8.66A26.26,26.26,0,0,0,193.67,552.22Z"/><path class="cls-2" d="M193.9,592.22a49.24,49.24,0,0,1,13.55-14,39.67,39.67,0,0,1,15.69-6.31,40.91,40.91,0,0,1,16.58.81,55.22,55.22,0,0,1,29.46,19.7,41.51,41.51,0,0,1,7.14,15.05,39.27,39.27,0,0,1,.23,16.95,49.45,49.45,0,0,1-7.76,17.87,50.86,50.86,0,0,1-13.53,14.1,38.72,38.72,0,0,1-15.67,6.4A40.54,40.54,0,0,1,223,662a53.5,53.5,0,0,1-16.53-7.55A52.22,52.22,0,0,1,193.17,642a39,39,0,0,1-7-32A49.86,49.86,0,0,1,193.9,592.22Zm21.29,14.24q-7,10.51-6.12,18.63t8.24,13q7.45,5,15.3,2.71t14.88-12.78q7-10.39,6.11-18.48t-8.3-13.06q-7.34-4.9-15.21-2.73T215.19,606.46Z"/><path class="cls-2" d="M290.66,692.34a38.67,38.67,0,0,1-4.93-.66,53.23,53.23,0,0,1-6.45-1.55,30.55,30.55,0,0,1-5.36-2.17,10.4,10.4,0,0,1-3.5-2.9A7.47,7.47,0,0,1,269,681a16.49,16.49,0,0,1,.91-5.82l19.33-62.51a6,6,0,0,1,2.9-3.83,11.72,11.72,0,0,1,5-1.14,55.24,55.24,0,0,1,11.26.94,103.88,103.88,0,0,1,12.12,3q18.76,5.8,26.27,16.71t3.35,24.3a32.6,32.6,0,0,1-5.74,11.1,25.5,25.5,0,0,1-9,7.09,29.76,29.76,0,0,1-12.28,2.6,49.41,49.41,0,0,1-15.25-2.47l-9.65-3Zm20.25-40.42q5.71,1.77,9.57.13t5.5-6.95c1-3.37.78-6.28-.79-8.76s-4.39-4.34-8.47-5.6q-2.18-.68-3.63-1a23.41,23.41,0,0,0-3-.57l-6.36,20.57Z"/><path class="cls-2" d="M354.91,667.57a49.49,49.49,0,0,1,3.79-19.12,39.56,39.56,0,0,1,9.76-13.81,40.66,40.66,0,0,1,14.36-8.31,55.23,55.23,0,0,1,35.44.56,41.36,41.36,0,0,1,14.16,8.77,39.24,39.24,0,0,1,9.39,14.11A49.51,49.51,0,0,1,445,669a51,51,0,0,1-3.72,19.19,38.86,38.86,0,0,1-9.69,13.88,40.53,40.53,0,0,1-14.43,8.31,53.5,53.5,0,0,1-18,2.64,52.46,52.46,0,0,1-17.88-3.27A39.07,39.07,0,0,1,358,686.65,49.85,49.85,0,0,1,354.91,667.57Zm25.62.4q-.21,12.64,5,19t14,6.47q9,.15,14.33-6t5.57-18.81q.19-12.51-4.9-18.84t-14.06-6.47q-8.84-.15-14.26,6T380.53,668Z"/><path class="cls-2" d="M492,628.49q-10.53,3.07-14.29,11t-.43,19.37q3.39,11.61,11.44,16t18.56,1.39a28.25,28.25,0,0,0,9.07-4.24,68.21,68.21,0,0,0,6.47-5.51,13.35,13.35,0,0,1,8,9.1q1.59,5.46-3.51,11.08T509.47,696a59.59,59.59,0,0,1-18,2.49,40.35,40.35,0,0,1-16.35-3.69,38.22,38.22,0,0,1-13.38-10.57q-5.85-7-9.12-18.25a48.81,48.81,0,0,1-2-19.31,39.67,39.67,0,0,1,16.41-28.31,50.85,50.85,0,0,1,15.85-7.67q12.57-3.68,20.64-1.69t9.9,8.26a10.66,10.66,0,0,1,0,6.52A15,15,0,0,1,510.5,629a47.21,47.21,0,0,0-8.71-1.65A26.46,26.46,0,0,0,492,628.49Z"/><path class="cls-2" d="M524.79,599a30.41,30.41,0,0,1,4.87-6.08,39.64,39.64,0,0,1,7.78-6.23,36.27,36.27,0,0,1,11.79-4.86q5.73-1.14,9.31,1.71,6,4.82,13.51,11.44t15.44,13.76q7.89,7.14,15.5,14.13t13.42,12.38a11.73,11.73,0,0,1-2.73,5.34,25,25,0,0,1-6.3,5.25,25.46,25.46,0,0,1-5.21,2.53,10.46,10.46,0,0,1-4.15.59,8.16,8.16,0,0,1-3.58-1.23,24.17,24.17,0,0,1-3.58-2.7l-7.19-6.83-22,13.45c.8,2.77,1.65,5.61,2.55,8.54s1.75,5.77,2.56,8.53a36.54,36.54,0,0,1-3,3.2,25.12,25.12,0,0,1-4.3,3.2q-6.19,3.79-10.43,3.54a7.77,7.77,0,0,1-6.5-3.92,13.91,13.91,0,0,1-1.54-3.62c-.36-1.3-.79-2.83-1.31-4.58q-1.11-3.71-2.49-9.38t-2.94-12.3q-1.54-6.62-3-13.69t-2.83-13.34q-1.34-6.27-2.29-11.22T524.79,599Zm23.92,6.36q1.35,6,3,13.42t3.76,14.72l15.05-9.21q-5.62-5.36-11.11-10.39t-9.93-9Z"/><path class="cls-2" d="M685.07,560.7a13.14,13.14,0,0,1-1.52,6.31,34.48,34.48,0,0,1-5.12,7.51,32.18,32.18,0,0,1-7.68,6.54q-4.23,2.55-10.59,1l-30.44-7.71c-3.11-.81-6-1.61-8.66-2.42s-5.71-1.79-9.1-3l-.45.73q6,4.49,12,9.52t11.61,9.95l16.28,14.09a43.87,43.87,0,0,1-2.49,4.15,50.08,50.08,0,0,1-3.83,5.06,33.08,33.08,0,0,1-3.95,3.93,8.64,8.64,0,0,1-3.87,1.92,8,8,0,0,1-4.15-.4,15.44,15.44,0,0,1-4.82-3L575.74,569.4a11.91,11.91,0,0,1,.85-7.35,27.69,27.69,0,0,1,4.73-7.58,31.27,31.27,0,0,1,7.77-6.54q4.33-2.56,10.5-1l30.53,7.61c3.11.8,6,1.61,8.66,2.41s5.7,1.8,9.09,3l.37-.63q-6-4.48-11.82-9.28T625,540.31l-17-14.72a38.87,38.87,0,0,1,2.49-4.15,48.77,48.77,0,0,1,3.83-5.07q4.1-4.72,7.87-5.8t8.92,3.39Z"/></g></g></svg>